<?xml version="1.0" encoding="UTF-8" standalone="no"?>
<!DOCTYPE svg PUBLIC "-//W3C//DTD SVG 1.1//EN" "http://www.w3.org/Graphics/SVG/1.1/DTD/svg11.dtd">
<svg xmlns="http://www.w3.org/2000/svg" version="1.1" viewBox="0 0 1305 803" width="1305.0pt" height="803.0pt">
<path d="M 0.00 0.00 L 1305.00 0.00 L 1305.00 803.00 L 0.00 803.00 L 0.00 0.00 Z" fill="#ffffff" />
<path d="M 650.89 8.38 C 656.79 20.93 662.26 34.47 664.72 48.16 C 667.21 62.72 667.38 77.58 663.84 91.99 C 670.22 86.03 677.70 82.32 685.39 78.38 C 696.21 72.97 708.01 69.03 720.03 67.53 C 723.37 67.01 726.55 67.52 729.81 68.18 C 727.73 79.04 722.80 89.18 715.36 97.37 C 709.26 103.87 701.39 108.85 693.22 112.34 C 689.61 113.90 685.81 114.62 681.93 115.12 C 693.55 119.13 701.09 129.54 707.70 139.30 C 714.12 148.96 716.98 159.34 716.52 170.97 C 698.16 170.45 679.19 165.33 666.47 151.31 C 668.09 159.26 666.89 166.61 664.15 174.13 C 661.76 182.00 657.31 188.61 652.22 194.95 C 648.82 194.05 645.59 193.37 642.65 191.34 C 635.80 186.87 631.55 180.24 627.89 173.10 C 623.61 164.83 620.96 156.08 618.84 147.05 C 613.07 155.07 603.61 160.05 594.52 163.37 C 585.52 166.72 576.94 165.40 567.38 165.73 C 569.00 156.52 571.20 147.65 575.12 139.11 C 580.56 128.14 586.91 117.98 596.49 110.13 C 586.33 103.43 578.12 94.19 572.68 83.30 C 571.07 79.98 569.54 76.83 569.45 73.06 C 569.31 68.65 569.24 64.25 568.75 59.85 C 583.27 61.64 597.37 67.36 609.42 75.60 C 613.78 78.54 616.96 82.52 619.96 86.78 C 619.54 77.40 619.01 68.57 621.40 59.37 C 624.41 47.53 628.98 35.85 635.46 25.46 C 639.65 19.17 644.66 12.77 650.89 8.38 Z" fill="#d8d184" />
<path d="M 781.60 15.12 C 782.67 16.66 784.21 18.28 784.70 20.12 C 785.38 24.77 784.60 29.20 782.24 33.25 C 777.94 40.66 771.64 48.09 763.43 51.19 C 760.06 52.46 757.32 51.32 754.16 50.18 C 754.86 47.32 755.52 44.51 756.67 41.80 C 759.21 35.98 761.35 30.44 765.36 25.41 C 769.73 20.16 774.33 15.52 781.60 15.12 Z" fill="#5c8f75" />
<path d="M 515.94 21.60 C 518.65 21.42 521.11 21.09 523.61 22.42 C 534.84 27.69 541.29 39.02 542.76 51.02 C 543.13 53.74 540.81 55.55 539.41 57.59 C 536.92 57.38 533.80 57.66 531.65 56.27 C 528.71 54.47 526.29 51.53 524.18 48.85 C 520.69 44.29 517.14 39.41 514.94 34.07 C 513.90 31.54 513.11 28.96 513.41 26.18 C 513.72 24.51 515.00 22.98 515.94 21.60 Z" fill="#5c8f75" />
<path d="M 511.71 55.36 C 511.67 57.72 511.63 60.08 511.59 62.44 C 464.93 69.41 419.65 77.88 374.79 92.90 C 337.57 105.71 301.26 122.11 267.77 142.86 C 246.71 156.00 226.97 170.99 207.92 186.89 C 189.67 201.97 172.56 218.12 156.99 235.98 C 127.75 269.61 103.99 306.61 82.68 345.65 C 71.53 366.62 62.41 388.58 55.13 411.18 C 48.87 430.69 43.02 450.67 39.88 470.94 C 38.00 484.47 38.19 497.63 37.71 511.23 C 35.54 511.36 33.38 511.48 31.21 511.61 C 30.48 504.72 30.66 497.91 30.60 491.00 C 30.55 470.94 34.51 451.73 39.70 432.46 C 44.62 413.39 51.07 394.60 58.25 376.26 C 69.10 348.89 83.47 323.81 98.85 298.81 C 104.98 289.00 111.20 279.30 117.83 269.83 C 131.34 251.07 145.70 232.42 161.84 215.85 C 182.21 194.30 205.56 175.12 229.09 157.13 C 243.16 146.57 257.76 136.86 272.87 127.86 C 316.96 102.66 364.56 83.06 413.95 71.05 C 445.96 62.64 478.63 57.04 511.71 55.36 Z" fill="#5c8f75" />
<path d="M 779.36 55.53 C 785.11 55.14 791.23 56.17 797.01 56.57 C 823.80 58.79 850.42 63.87 876.44 70.58 C 926.44 82.57 974.63 102.27 1019.25 127.76 C 1053.25 147.84 1084.08 172.24 1113.28 198.74 C 1154.04 236.72 1185.29 282.38 1212.23 330.84 C 1231.23 364.35 1244.77 401.50 1254.23 438.76 C 1258.43 455.33 1261.75 472.87 1261.59 490.00 C 1261.59 497.86 1261.55 505.73 1261.21 513.58 C 1259.07 513.68 1256.93 513.74 1254.79 513.80 C 1253.87 505.20 1254.61 496.60 1253.85 488.00 C 1253.26 465.30 1246.49 441.73 1239.98 420.05 C 1234.00 400.89 1227.17 381.66 1218.47 363.56 C 1211.80 348.76 1203.62 334.59 1195.37 320.62 C 1182.28 298.58 1168.20 276.85 1152.27 256.74 C 1138.60 238.91 1123.58 222.16 1107.12 206.85 C 1093.23 193.98 1078.66 181.84 1063.66 170.29 C 1047.62 157.71 1030.63 146.29 1013.07 135.93 C 988.71 121.98 963.21 109.97 936.99 99.96 C 886.91 80.58 832.89 70.13 779.91 62.36 C 779.67 60.10 779.37 57.80 779.36 55.53 Z" fill="#5c8f75" />
<path d="M 533.24 68.27 C 535.87 67.09 539.79 67.20 541.68 69.67 C 543.81 72.09 543.51 76.02 543.06 78.98 C 541.99 84.52 538.63 89.82 535.32 94.32 C 532.13 98.49 528.21 103.32 523.20 105.28 C 520.91 106.12 517.65 106.21 515.94 104.16 C 513.65 101.94 514.19 98.86 514.40 95.98 C 515.14 88.26 519.30 81.91 524.11 76.07 C 526.70 73.16 529.69 69.97 533.24 68.27 Z" fill="#5c8f75" />
<path d="M 760.73 70.46 C 763.62 70.60 766.28 70.57 768.84 72.12 C 775.10 75.72 779.68 81.55 783.33 87.66 C 785.43 91.25 787.73 95.20 788.69 99.28 C 789.40 102.04 788.67 104.43 788.22 107.16 C 786.47 107.98 784.71 108.81 782.96 109.64 C 773.45 107.59 767.39 99.11 762.82 91.19 C 759.83 85.04 757.13 76.90 760.73 70.46 Z" fill="#5c8f75" />
<path d="M 649.97 87.00 C 652.27 89.73 651.59 93.11 651.72 96.44 C 649.03 98.19 646.38 100.45 642.97 100.25 C 640.66 100.09 638.91 99.22 637.94 97.05 C 636.28 93.51 635.36 88.57 638.71 85.70 C 642.24 82.64 647.14 83.49 649.97 87.00 Z" fill="#ffffff" />
<path d="M 646.17 87.83 C 648.81 89.83 648.21 92.29 648.63 95.22 C 646.81 95.83 644.98 96.44 643.15 97.05 C 641.30 95.07 638.84 94.17 639.25 91.03 C 639.27 87.41 643.35 85.23 646.17 87.83 Z" fill="#d8d184" />
<path d="M 630.04 103.63 C 633.72 103.80 636.96 106.53 637.67 110.16 C 638.22 114.09 638.26 118.11 634.43 120.35 C 629.73 123.24 625.12 120.55 620.45 119.15 C 619.93 116.49 618.73 113.57 619.68 110.94 C 620.91 106.57 625.61 103.56 630.04 103.63 Z" fill="#ffffff" />
<path d="M 661.40 107.64 C 666.16 109.51 667.89 115.24 665.72 119.72 C 663.63 125.10 656.39 128.10 651.51 124.50 C 648.91 122.79 648.72 120.30 647.97 117.55 C 648.97 116.71 649.98 115.86 650.98 115.01 C 651.41 113.23 651.55 111.10 652.50 109.51 C 654.49 106.91 658.52 106.74 661.40 107.64 Z" fill="#ffffff" />
<path d="M 630.04 107.62 C 633.91 108.19 634.52 113.19 633.06 116.08 C 631.74 117.09 629.74 117.29 628.18 117.80 C 626.24 116.12 624.26 114.49 622.26 112.89 C 624.43 109.98 625.87 107.32 630.04 107.62 Z" fill="#d8d184" />
<path d="M 655.73 111.32 C 657.44 111.69 659.90 111.60 661.11 113.02 C 662.00 115.10 661.89 117.57 660.35 119.32 C 658.84 121.21 655.49 122.17 653.68 120.19 C 652.41 117.36 654.51 113.84 655.73 111.32 Z" fill="#d8d184" />
<path d="M 298.60 512.40 C 303.36 517.43 306.48 525.08 302.61 531.57 C 298.60 538.64 287.70 539.43 282.17 533.80 C 280.22 531.78 279.35 528.83 278.35 526.26 C 279.92 523.62 280.61 521.20 284.06 520.69 C 285.53 519.76 286.55 522.80 287.48 523.63 C 286.28 524.74 285.09 525.86 283.90 526.97 C 284.92 528.27 285.90 529.74 287.14 530.84 C 290.83 533.60 296.99 532.11 298.62 527.67 C 299.47 524.85 298.45 521.46 297.00 518.97 C 294.57 514.78 289.90 512.10 285.49 510.46 C 274.57 506.15 260.66 510.48 254.27 520.35 C 251.04 525.22 252.60 530.89 255.36 535.53 C 258.97 541.18 264.39 545.77 270.47 548.57 C 280.36 553.05 291.17 554.97 302.00 554.68 C 318.27 555.08 334.25 550.31 349.19 544.24 C 357.04 541.10 364.53 537.19 372.43 534.18 C 378.23 532.06 382.94 529.23 389.32 529.38 C 382.11 533.38 374.36 536.42 366.98 540.11 C 357.20 545.06 347.44 550.40 337.02 553.90 C 323.91 558.50 309.92 561.14 296.00 560.36 C 284.66 559.41 273.41 557.42 263.51 551.49 C 255.73 546.99 249.42 539.71 247.08 530.93 C 245.78 525.95 246.81 520.88 249.74 516.69 C 253.62 511.16 259.51 506.79 265.99 504.82 C 277.16 501.49 290.19 504.18 298.60 512.40 Z" fill="#5c8f75" />
<path d="M 1020.01 503.47 C 1030.17 503.61 1039.89 509.14 1045.29 517.70 C 1048.19 522.21 1048.44 527.79 1046.76 532.79 C 1044.44 539.75 1039.61 545.46 1033.71 549.68 C 1025.71 555.21 1016.63 557.97 1007.09 559.36 C 990.06 562.25 972.53 559.34 956.41 553.55 C 943.73 549.18 933.00 542.59 920.93 537.02 C 915.59 534.48 910.16 532.19 904.90 529.49 C 907.79 529.46 910.52 529.64 913.23 530.75 C 920.12 533.43 927.07 536.10 933.76 539.23 C 951.67 547.50 972.01 555.13 992.00 554.67 C 1002.09 554.97 1012.13 553.39 1021.51 549.64 C 1028.63 546.79 1035.27 541.88 1039.23 535.22 C 1041.43 531.57 1042.59 526.93 1041.32 522.76 C 1039.03 517.00 1033.13 512.64 1027.48 510.51 C 1018.35 507.01 1007.76 509.04 1000.40 515.38 C 997.28 518.15 994.79 522.89 995.57 527.12 C 996.81 531.59 1002.47 533.49 1006.41 531.39 C 1008.50 530.40 1009.14 528.33 1010.29 526.46 C 1009.28 525.58 1008.28 524.69 1007.28 523.81 C 1007.36 523.18 1007.43 522.55 1007.51 521.92 C 1008.37 521.35 1009.24 520.77 1010.10 520.20 C 1011.67 521.27 1014.27 522.19 1014.93 524.11 C 1016.19 526.63 1015.17 529.53 1013.80 531.77 C 1009.59 538.87 998.03 539.47 992.91 533.09 C 989.88 529.71 989.70 524.94 990.78 520.74 C 992.12 516.63 994.71 512.82 998.19 510.23 C 1004.49 505.62 1012.16 503.04 1020.01 503.47 Z" fill="#5c8f75" />
<path d="M 70.00 523.62 C 77.65 523.69 85.51 525.68 91.71 530.29 C 96.26 533.73 99.70 539.15 99.39 545.02 C 99.33 548.78 98.13 551.84 95.75 554.72 C 94.30 556.41 92.43 558.85 89.98 558.82 C 86.59 559.28 83.03 557.25 81.87 554.03 C 81.18 550.75 82.87 546.48 78.93 544.89 C 72.11 542.95 64.36 546.76 60.27 552.27 C 55.17 559.20 51.90 567.27 52.53 576.01 C 52.61 586.69 58.75 595.66 66.68 602.29 C 76.41 609.97 89.27 614.47 101.15 617.53 C 106.64 630.17 118.70 637.62 131.44 641.47 C 144.20 645.31 156.65 644.92 169.80 644.39 C 183.08 643.24 196.42 641.20 209.25 637.53 C 215.87 635.69 221.90 632.70 227.98 629.59 C 226.64 634.01 225.22 638.31 225.43 643.01 C 225.69 648.34 227.80 653.53 232.04 656.91 C 235.13 659.45 238.99 660.67 242.95 660.83 C 251.48 661.30 259.71 658.84 267.52 655.64 C 276.97 651.54 285.97 646.53 293.90 639.91 C 303.95 631.60 313.50 622.12 321.96 612.20 C 319.60 619.83 318.16 627.40 320.76 635.21 C 322.93 640.72 327.37 646.13 333.45 647.32 C 339.54 648.42 345.65 647.54 351.43 645.45 C 359.88 642.40 367.88 637.40 375.13 632.16 C 385.12 624.72 394.33 616.86 401.74 606.76 C 400.02 616.09 399.90 626.39 402.82 635.50 C 404.51 640.72 408.44 644.97 413.97 646.01 C 418.11 646.98 421.97 645.29 425.81 643.99 C 424.85 651.26 424.06 659.93 420.33 666.37 C 416.17 673.12 406.90 674.43 400.27 670.73 C 396.44 668.59 394.21 664.68 391.77 661.19 C 389.45 657.72 386.92 654.37 386.61 650.05 C 386.34 645.65 386.78 641.21 386.82 636.81 C 382.21 645.03 375.86 651.65 369.44 658.44 C 364.45 663.61 358.71 667.88 352.52 671.51 C 343.21 677.38 332.05 680.93 321.00 680.83 C 317.35 680.79 313.40 681.10 309.84 680.18 C 304.48 678.52 300.91 673.37 300.08 667.96 C 299.18 662.16 299.04 655.93 300.55 650.21 C 296.35 655.26 291.42 660.13 286.43 664.41 C 276.86 671.86 265.60 677.42 254.73 682.71 C 240.98 688.80 225.15 693.35 210.01 692.43 C 202.47 692.05 195.37 689.42 190.19 683.80 C 188.32 681.28 188.65 677.13 188.79 674.15 C 189.73 664.01 193.35 653.77 199.36 645.51 C 190.42 648.61 181.11 650.71 171.90 652.88 C 164.01 654.74 156.07 654.84 148.00 654.68 C 131.81 654.74 115.75 651.55 100.39 646.59 C 84.51 641.13 69.34 634.20 55.73 624.27 C 44.27 616.09 32.31 605.71 26.24 592.75 C 22.40 585.22 23.29 576.52 24.75 568.49 C 26.39 559.94 30.24 552.84 34.23 545.24 C 37.25 539.68 40.66 534.62 45.81 530.80 C 52.66 525.53 61.45 523.36 70.00 523.62 Z" fill="#5c8f75" />
<path d="M 1216.18 524.46 C 1226.09 522.66 1236.56 523.46 1245.37 528.63 C 1251.91 532.50 1256.49 538.32 1260.01 544.95 C 1264.00 552.61 1267.94 559.65 1269.59 568.24 C 1270.87 575.00 1271.69 582.85 1269.50 589.49 C 1265.34 600.74 1256.22 610.57 1246.96 617.96 C 1227.19 634.27 1202.89 645.29 1178.00 651.00 C 1163.22 654.53 1148.11 655.21 1132.98 654.47 C 1125.56 653.90 1118.19 651.90 1111.00 650.11 C 1105.62 648.76 1100.26 647.35 1095.01 645.55 C 1102.08 655.26 1106.31 668.00 1105.48 680.05 C 1105.32 683.93 1102.44 685.62 1099.63 687.67 C 1093.10 692.40 1083.78 692.90 1076.02 692.41 C 1054.30 690.93 1034.30 681.12 1015.97 670.01 C 1007.54 664.93 1000.55 658.16 994.24 650.66 C 994.96 657.18 995.45 664.47 993.58 670.83 C 991.95 676.04 987.58 680.20 982.00 680.65 C 975.00 680.99 967.61 681.13 960.77 679.41 C 949.39 676.84 938.82 670.44 929.93 663.06 C 921.64 655.24 913.05 646.57 907.47 636.59 C 907.51 641.06 907.95 645.56 907.72 650.02 C 907.54 654.49 904.82 657.88 902.46 661.45 C 900.01 664.98 897.79 668.82 893.85 670.89 C 887.14 674.42 877.91 672.99 873.91 666.14 C 870.36 659.74 869.56 651.24 868.59 644.09 C 872.69 645.37 876.66 647.07 881.01 645.89 C 886.32 644.69 889.93 640.58 891.56 635.53 C 894.46 626.54 894.28 616.32 892.70 607.10 C 903.30 620.26 916.54 631.32 931.09 639.87 C 940.06 644.94 950.06 649.16 960.58 647.39 C 967.28 646.21 972.12 640.18 974.01 633.96 C 975.93 626.59 974.74 619.53 972.43 612.43 C 983.00 624.21 994.66 636.19 1007.69 645.31 C 1016.05 650.82 1025.17 655.53 1034.76 658.49 C 1041.05 660.43 1047.90 661.52 1054.46 660.50 C 1061.77 659.27 1067.67 653.05 1068.66 645.72 C 1069.60 640.03 1068.14 634.87 1066.28 629.56 C 1073.65 633.39 1081.17 636.76 1089.29 638.66 C 1105.49 642.63 1122.29 645.06 1139.00 644.68 C 1154.53 644.81 1171.58 640.95 1183.56 630.55 C 1187.85 627.00 1190.88 622.65 1193.12 617.58 C 1202.36 615.15 1211.25 612.26 1219.65 607.63 C 1227.58 603.42 1234.66 596.79 1238.78 588.76 C 1242.06 582.57 1242.30 574.83 1241.40 568.04 C 1240.27 562.31 1237.48 556.69 1233.95 552.06 C 1229.80 546.73 1222.75 543.26 1215.97 544.71 C 1213.90 545.36 1212.85 546.74 1212.79 548.92 C 1212.37 551.50 1213.29 554.33 1211.18 556.21 C 1208.99 558.72 1205.66 559.52 1202.55 558.37 C 1199.95 556.71 1197.00 553.07 1195.91 550.18 C 1194.61 545.45 1194.75 539.79 1197.68 535.65 C 1201.89 529.32 1208.95 525.99 1216.18 524.46 Z" fill="#5c8f75" />
<path d="M 503.00 525.78 C 512.33 525.70 521.67 525.74 531.00 525.78 C 549.82 526.54 568.16 526.90 586.55 531.62 C 595.83 534.07 605.44 537.16 613.47 542.53 C 617.49 545.15 620.79 548.34 624.46 551.41 C 619.42 550.19 614.27 549.65 609.20 548.53 C 601.62 546.94 593.66 547.98 586.00 548.35 C 576.15 548.68 566.35 549.71 556.50 550.16 C 541.46 550.85 526.49 553.88 512.02 557.90 C 500.02 561.17 490.73 567.82 480.28 574.29 C 470.13 580.64 461.20 588.35 452.24 596.24 C 447.96 599.98 444.09 604.11 440.35 608.37 C 432.99 615.74 429.65 627.35 427.14 637.21 C 423.58 639.53 420.44 641.72 415.94 641.27 C 411.18 640.91 408.72 636.73 407.49 632.59 C 405.65 625.29 405.10 617.43 406.59 610.01 C 407.75 603.35 410.55 597.36 410.84 590.50 C 405.70 593.10 403.36 597.59 399.79 601.79 C 388.74 614.91 375.64 626.22 360.78 634.82 C 354.54 638.27 347.22 641.83 340.00 642.21 C 336.03 642.41 332.19 641.62 329.42 638.57 C 324.16 633.00 324.15 624.22 326.20 617.28 C 328.82 608.01 334.46 601.66 339.02 593.47 C 336.57 594.86 334.19 596.19 331.99 597.97 C 320.52 607.86 310.22 618.87 298.95 628.95 C 291.77 635.39 284.39 641.35 275.77 645.77 C 267.28 650.16 257.61 654.36 248.02 655.25 C 243.15 655.64 238.06 655.23 234.52 651.48 C 230.81 647.46 230.68 641.58 231.72 636.50 C 233.02 631.48 235.75 626.83 237.56 621.97 C 227.99 625.06 219.40 630.13 209.60 632.68 C 189.33 638.17 167.97 640.65 147.00 639.05 C 132.31 637.63 116.82 631.86 108.24 619.19 C 120.05 621.52 131.93 622.99 144.00 622.62 C 172.85 623.03 202.12 618.28 229.91 610.75 C 260.07 602.44 288.20 588.54 317.11 576.10 C 358.59 558.70 398.81 542.57 443.07 533.32 C 462.88 529.35 482.79 526.67 503.00 525.78 Z" fill="#5c8f75" />
<path d="M 752.00 526.27 C 764.96 525.44 778.01 525.80 791.00 525.77 C 813.61 526.76 836.16 529.92 858.26 534.81 C 886.86 541.41 914.98 550.85 942.21 561.78 C 956.68 567.54 971.20 573.32 985.43 579.67 C 1010.51 590.59 1034.14 601.90 1060.52 609.63 C 1083.16 616.12 1106.49 620.42 1129.98 622.14 C 1138.64 622.65 1147.34 622.62 1156.00 622.62 C 1166.25 622.63 1176.07 621.07 1186.12 619.22 C 1181.13 626.21 1175.07 630.88 1167.16 634.17 C 1156.65 638.75 1145.34 639.69 1134.00 639.50 C 1120.50 639.56 1107.20 637.76 1094.02 634.99 C 1088.23 633.72 1082.41 632.17 1076.87 630.06 C 1070.13 627.54 1063.81 624.17 1056.93 621.99 C 1059.10 628.13 1063.17 634.51 1063.35 640.98 C 1063.54 646.41 1061.28 651.84 1056.08 654.12 C 1050.73 656.37 1043.74 655.18 1038.27 653.78 C 1028.57 651.05 1019.26 646.61 1010.79 641.18 C 994.95 630.37 983.58 616.90 969.53 604.46 C 965.20 600.16 960.92 596.13 955.28 593.58 C 960.20 601.79 965.84 608.43 968.36 617.91 C 969.95 623.84 970.17 630.57 966.93 636.00 C 964.97 639.26 961.91 641.69 958.03 642.07 C 950.24 643.05 942.02 639.27 935.27 635.72 C 920.54 627.53 907.29 616.50 896.27 603.77 C 893.30 600.37 890.75 596.59 887.65 593.32 C 886.44 591.99 884.82 591.58 883.22 590.83 C 884.49 599.29 887.92 606.46 888.46 614.98 C 888.80 621.14 888.53 627.70 886.58 633.59 C 885.35 637.10 883.03 640.59 879.08 641.20 C 874.58 641.91 871.20 639.62 867.41 637.67 C 864.81 627.56 861.41 615.68 853.87 608.12 C 845.73 598.83 836.37 590.97 826.78 583.23 C 817.86 576.28 808.11 570.35 798.36 564.64 C 787.14 557.99 773.67 555.52 761.00 552.92 C 747.02 550.01 733.17 550.19 719.04 548.90 C 713.44 548.49 707.84 548.42 702.25 547.95 C 696.54 547.62 690.53 547.35 684.93 548.58 C 679.98 549.68 674.95 550.14 670.05 551.48 C 675.60 546.27 681.35 541.51 688.34 538.35 C 708.40 529.28 730.24 526.98 752.00 526.27 Z" fill="#5c8f75" />
<path d="M 669.41 569.86 C 675.71 583.44 681.58 598.15 683.68 613.02 C 684.82 620.20 684.84 627.71 684.77 635.00 C 684.73 641.22 683.43 647.13 682.23 653.21 C 688.58 647.31 696.03 643.58 703.67 639.68 C 714.14 634.39 725.37 630.70 736.98 628.91 C 740.68 628.34 744.28 628.68 747.98 629.07 C 746.64 639.36 741.70 649.15 735.09 657.05 C 726.29 667.04 713.72 674.34 700.58 676.67 C 704.73 678.19 708.60 680.10 711.84 683.17 C 718.45 689.31 723.95 696.76 728.47 704.55 C 733.35 713.05 735.25 722.63 734.85 732.38 C 728.52 732.05 722.27 731.31 716.10 729.85 C 704.38 727.38 693.48 721.64 685.11 713.04 C 686.77 723.47 683.90 733.20 679.63 742.61 C 677.27 747.59 674.00 751.72 670.68 756.07 C 661.63 754.91 655.26 748.90 650.41 741.60 C 643.75 731.38 639.99 720.16 637.20 708.37 C 634.39 711.89 631.33 715.09 627.46 717.46 C 620.67 721.74 612.84 725.51 604.82 726.54 C 598.55 727.00 592.26 726.79 585.99 727.28 C 587.91 709.88 595.27 693.73 606.10 680.08 C 608.74 676.92 611.82 674.16 614.83 671.36 C 604.81 664.68 596.57 655.59 591.19 644.80 C 587.50 637.30 585.63 629.48 584.17 621.29 C 592.50 621.05 599.97 623.56 607.70 626.28 C 615.03 629.10 622.17 632.87 628.57 637.42 C 632.87 640.47 635.93 644.52 638.83 648.85 C 637.85 642.01 637.71 635.04 638.39 628.16 C 639.18 621.46 641.23 614.80 643.47 608.46 C 647.13 598.46 651.65 588.73 658.37 580.41 C 661.76 576.35 664.65 572.42 669.41 569.86 Z" fill="#d8d184" />
<path d="M 513.45 571.02 C 513.43 571.73 513.40 572.44 513.37 573.14 C 508.91 577.33 504.15 581.55 500.26 586.26 C 493.95 593.98 488.37 601.76 485.48 611.45 C 482.81 620.35 481.49 630.75 484.26 639.76 C 485.47 643.93 487.60 648.20 491.14 650.85 C 495.95 654.52 502.45 655.54 508.29 654.31 C 514.73 652.63 521.06 646.39 519.59 639.25 C 518.53 634.56 513.70 632.79 509.44 634.47 C 506.36 635.65 505.68 638.24 504.25 640.91 C 504.80 641.81 505.36 642.70 505.91 643.60 C 507.44 643.47 508.97 643.34 510.51 643.22 C 510.60 644.43 510.69 645.63 510.79 646.84 C 508.13 647.35 505.95 648.17 503.49 646.49 C 499.61 644.05 500.29 638.86 502.39 635.44 C 506.60 628.28 517.69 627.66 522.56 634.48 C 527.29 641.37 524.10 651.00 517.88 655.84 C 508.94 663.70 494.08 662.08 485.61 654.35 C 479.20 648.10 476.63 638.75 476.62 630.00 C 476.11 616.13 480.79 602.22 489.26 591.26 C 494.22 584.54 500.00 578.53 506.91 573.81 C 508.92 572.51 511.22 571.80 513.45 571.02 Z" fill="#5c8f75" />
<path d="M 780.03 571.48 C 782.47 571.52 784.64 571.90 786.69 573.30 C 792.23 576.89 797.11 581.62 801.44 586.58 C 810.19 596.61 816.16 608.69 817.52 622.03 C 818.06 631.60 818.04 640.49 813.00 648.98 C 807.41 658.93 794.67 663.01 783.99 660.02 C 776.47 657.49 769.41 650.34 769.53 641.99 C 769.50 636.85 772.30 632.00 777.36 630.41 C 784.76 627.67 793.53 632.85 793.64 641.02 C 793.89 645.31 789.97 648.21 785.91 647.51 C 783.89 646.92 783.85 645.26 783.00 643.60 C 785.08 643.35 787.82 643.82 789.57 642.55 C 790.59 635.93 782.69 631.38 777.35 635.29 C 772.88 638.97 774.27 645.36 777.83 649.16 C 783.58 655.97 793.83 656.24 801.24 652.19 C 806.84 648.98 809.56 643.11 810.85 637.02 C 812.43 628.80 811.46 619.97 809.07 611.99 C 806.14 601.55 799.20 591.96 792.07 583.95 C 788.24 579.67 783.38 576.08 780.03 571.48 Z" fill="#5c8f75" />
<path d="M 67.46 572.67 C 70.89 570.32 76.06 571.28 79.03 574.00 C 83.69 577.72 83.09 586.78 77.44 589.28 C 72.37 590.95 67.13 587.99 64.81 583.44 C 63.52 579.83 64.15 575.02 67.46 572.67 Z" fill="#5c8f75" />
<path d="M 1218.20 572.21 C 1221.28 570.99 1225.17 570.79 1227.67 573.34 C 1230.98 576.57 1231.27 581.79 1228.39 585.40 C 1225.47 589.36 1219.03 591.46 1214.98 588.04 C 1210.34 583.36 1211.80 574.64 1218.20 572.21 Z" fill="#5c8f75" />
<path d="M 76.70 579.26 C 76.91 581.05 76.68 582.94 76.56 584.74 C 74.20 584.33 72.01 584.74 70.44 582.57 C 69.18 581.13 68.89 578.94 70.64 577.76 C 72.67 576.06 75.90 576.64 76.70 579.26 Z" fill="#ffffff" />
<path d="M 1220.71 576.59 C 1222.06 576.97 1223.40 577.38 1224.74 577.80 C 1224.63 579.23 1224.74 580.80 1224.30 582.17 C 1222.97 584.13 1221.00 584.83 1218.69 584.62 C 1216.43 581.23 1216.95 578.32 1220.71 576.59 Z" fill="#ffffff" />
<path d="M 410.84 590.50 C 410.55 597.36 407.75 603.35 406.59 610.01 C 405.10 617.43 405.65 625.29 407.49 632.59 C 408.72 636.73 411.18 640.91 415.94 641.27 C 420.44 641.72 423.58 639.53 427.14 637.21 C 426.61 639.45 426.16 641.71 425.81 643.99 C 421.97 645.29 418.11 646.98 413.97 646.01 C 408.44 644.97 404.51 640.72 402.82 635.50 C 399.90 626.39 400.02 616.09 401.74 606.76 C 394.33 616.86 385.12 624.72 375.13 632.16 C 367.88 637.40 359.88 642.40 351.43 645.45 C 345.65 647.54 339.54 648.42 333.45 647.32 C 327.37 646.13 322.93 640.72 320.76 635.21 C 318.16 627.40 319.60 619.83 321.96 612.20 C 313.50 622.12 303.95 631.60 293.90 639.91 C 285.97 646.53 276.97 651.54 267.52 655.64 C 259.71 658.84 251.48 661.30 242.95 660.83 C 238.99 660.67 235.13 659.45 232.04 656.91 C 227.80 653.53 225.69 648.34 225.43 643.01 C 225.22 638.31 226.64 634.01 227.98 629.59 C 221.90 632.70 215.87 635.69 209.25 637.53 C 196.42 641.20 183.08 643.24 169.80 644.39 C 156.65 644.92 144.20 645.31 131.44 641.47 C 118.70 637.62 106.64 630.17 101.15 617.53 C 103.51 618.11 105.87 618.69 108.24 619.19 C 116.82 631.86 132.31 637.63 147.00 639.05 C 167.97 640.65 189.33 638.17 209.60 632.68 C 219.40 630.13 227.99 625.06 237.56 621.97 C 235.75 626.83 233.02 631.48 231.72 636.50 C 230.68 641.58 230.81 647.46 234.52 651.48 C 238.06 655.23 243.15 655.64 248.02 655.25 C 257.61 654.36 267.28 650.16 275.77 645.77 C 284.39 641.35 291.77 635.39 298.95 628.95 C 310.22 618.87 320.52 607.86 331.99 597.97 C 334.19 596.19 336.57 594.86 339.02 593.47 C 334.46 601.66 328.82 608.01 326.20 617.28 C 324.15 624.22 324.16 633.00 329.42 638.57 C 332.19 641.62 336.03 642.41 340.00 642.21 C 347.22 641.83 354.54 638.27 360.78 634.82 C 375.64 626.22 388.74 614.91 399.79 601.79 C 403.36 597.59 405.70 593.10 410.84 590.50 Z" fill="#d8d184" />
<path d="M 887.65 593.32 C 890.75 596.59 893.30 600.37 896.27 603.77 C 907.29 616.50 920.54 627.53 935.27 635.72 C 942.02 639.27 950.24 643.05 958.03 642.07 C 961.91 641.69 964.97 639.26 966.93 636.00 C 970.17 630.57 969.95 623.84 968.36 617.91 C 965.84 608.43 960.20 601.79 955.28 593.58 C 960.92 596.13 965.20 600.16 969.53 604.46 C 983.58 616.90 994.95 630.37 1010.79 641.18 C 1019.26 646.61 1028.57 651.05 1038.27 653.78 C 1043.74 655.18 1050.73 656.37 1056.08 654.12 C 1061.28 651.84 1063.54 646.41 1063.35 640.98 C 1063.17 634.51 1059.10 628.13 1056.93 621.99 C 1063.81 624.17 1070.13 627.54 1076.87 630.06 C 1082.41 632.17 1088.23 633.72 1094.02 634.99 C 1107.20 637.76 1120.50 639.56 1134.00 639.50 C 1145.34 639.69 1156.65 638.75 1167.16 634.17 C 1175.07 630.88 1181.13 626.21 1186.12 619.22 C 1188.46 618.72 1190.79 618.14 1193.12 617.58 C 1190.88 622.65 1187.85 627.00 1183.56 630.55 C 1171.58 640.95 1154.53 644.81 1139.00 644.68 C 1122.29 645.06 1105.49 642.63 1089.29 638.66 C 1081.17 636.76 1073.65 633.39 1066.28 629.56 C 1068.14 634.87 1069.60 640.03 1068.66 645.72 C 1067.67 653.05 1061.77 659.27 1054.46 660.50 C 1047.90 661.52 1041.05 660.43 1034.76 658.49 C 1025.17 655.53 1016.05 650.82 1007.69 645.31 C 994.66 636.19 983.00 624.21 972.43 612.43 C 974.74 619.53 975.93 626.59 974.01 633.96 C 972.12 640.18 967.28 646.21 960.58 647.39 C 950.06 649.16 940.06 644.94 931.09 639.87 C 916.54 631.32 903.30 620.26 892.70 607.10 C 894.28 616.32 894.46 626.54 891.56 635.53 C 889.93 640.58 886.32 644.69 881.01 645.89 C 876.66 647.07 872.69 645.37 868.59 644.09 C 868.28 641.93 867.86 639.80 867.41 637.67 C 871.20 639.62 874.58 641.91 879.08 641.20 C 883.03 640.59 885.35 637.10 886.58 633.59 C 888.53 627.70 888.80 621.14 888.46 614.98 C 887.92 606.46 884.49 599.29 883.22 590.83 C 884.82 591.58 886.44 591.99 887.65 593.32 Z" fill="#d8d184" />
<path d="M 428.50 598.09 C 430.00 600.40 431.82 602.04 431.29 605.07 C 430.69 609.02 428.83 613.27 426.56 616.55 C 424.06 620.06 418.42 618.98 416.84 615.09 C 415.13 610.30 416.70 603.96 420.50 600.52 C 422.73 598.41 425.64 598.57 428.50 598.09 Z" fill="#ffffff" />
<path d="M 865.69 598.36 C 867.91 598.47 870.64 598.21 872.53 599.54 C 876.35 602.01 878.20 606.63 878.42 611.03 C 878.67 613.95 876.58 616.24 875.17 618.58 C 873.26 618.40 870.83 618.76 869.10 617.90 C 866.92 616.07 865.69 612.95 864.58 610.39 C 862.99 606.20 862.23 601.86 865.69 598.36 Z" fill="#ffffff" />
<path d="M 426.76 601.44 C 427.37 602.20 427.98 602.97 428.57 603.75 C 427.53 607.08 426.62 611.55 424.09 614.12 C 422.97 614.70 421.66 614.96 420.46 615.32 C 419.87 611.96 419.00 609.09 420.86 605.94 C 422.00 603.12 424.05 602.33 426.76 601.44 Z" fill="#5c8f75" />
<path d="M 867.99 601.20 C 869.94 602.29 871.86 603.08 873.05 605.08 C 875.03 608.15 874.47 611.31 874.47 614.78 C 873.18 614.71 871.81 614.77 870.54 614.45 C 867.75 611.74 866.63 607.13 866.13 603.39 C 866.73 602.65 867.35 601.92 867.99 601.20 Z" fill="#5c8f75" />
<path d="M 357.94 605.17 C 360.53 605.14 363.32 607.26 363.59 609.89 C 364.18 614.91 361.12 620.26 357.18 623.23 C 353.49 626.03 348.46 624.66 344.49 623.25 C 344.21 620.28 343.48 617.32 344.58 614.44 C 346.52 609.08 352.04 604.60 357.94 605.17 Z" fill="#ffffff" />
<path d="M 936.01 605.21 C 941.60 604.42 946.53 608.13 949.10 612.81 C 950.77 615.90 950.40 618.91 950.54 622.29 C 947.01 624.78 943.00 625.63 938.84 624.19 C 934.42 621.84 931.34 616.92 930.64 612.02 C 930.19 608.74 932.60 605.38 936.01 605.21 Z" fill="#ffffff" />
<path d="M 359.82 609.50 C 359.26 612.15 358.98 615.24 357.28 617.43 C 355.41 619.96 351.86 620.78 348.88 620.31 C 347.31 617.80 349.62 613.38 351.65 611.64 C 354.04 609.30 356.73 609.71 359.82 609.50 Z" fill="#5c8f75" />
<path d="M 940.76 610.29 C 944.66 612.26 945.43 615.89 946.78 619.67 C 944.43 620.09 942.47 620.85 940.16 619.71 C 936.36 618.16 935.46 613.95 934.39 610.43 C 936.58 609.65 938.58 609.04 940.76 610.29 Z" fill="#5c8f75" />
<path d="M 263.54 620.75 C 267.08 619.80 272.43 619.94 274.86 623.15 C 276.51 626.49 275.57 630.38 273.26 633.17 C 270.72 636.26 267.45 640.13 262.97 639.39 C 259.57 639.12 256.02 638.72 255.01 634.85 C 253.71 629.20 258.06 622.42 263.54 620.75 Z" fill="#ffffff" />
<path d="M 1034.97 623.02 C 1038.23 625.88 1040.55 631.01 1039.26 635.33 C 1037.79 639.52 1031.55 639.82 1027.97 639.11 C 1024.46 637.36 1021.38 633.97 1019.53 630.55 C 1018.05 627.85 1018.74 625.45 1019.51 622.70 C 1024.07 619.39 1030.64 619.27 1034.97 623.02 Z" fill="#ffffff" />
<path d="M 272.92 626.59 C 271.35 629.25 270.05 631.78 267.18 633.26 C 264.63 634.92 262.08 634.57 259.20 634.59 C 259.51 631.58 259.35 628.99 261.79 626.79 C 264.91 623.52 269.52 623.98 272.92 626.59 Z" fill="#5c8f75" />
<path d="M 1033.81 628.23 C 1035.30 630.27 1034.93 632.35 1035.03 634.73 C 1031.87 634.69 1029.00 634.64 1026.33 632.70 C 1023.84 631.23 1022.00 628.81 1022.45 625.79 C 1025.99 623.36 1031.66 624.33 1033.81 628.23 Z" fill="#5c8f75" />
<path d="M 659.40 645.56 C 661.98 644.99 665.03 645.03 667.06 646.96 C 670.30 649.87 671.92 655.12 668.62 658.64 C 665.47 662.05 658.05 663.19 656.15 657.85 C 653.95 653.60 654.15 647.27 659.40 645.56 Z" fill="#ffffff" />
<path d="M 661.97 648.11 C 666.02 648.58 667.73 652.66 666.35 656.28 C 665.12 657.43 662.98 657.64 661.41 658.14 C 660.16 657.07 658.90 656.02 657.64 654.97 C 657.60 653.52 657.59 652.06 657.59 650.60 C 658.99 649.39 659.88 647.83 661.97 648.11 Z" fill="#d8d184" />
<path d="M 651.41 665.62 C 657.60 668.24 658.43 679.22 651.97 682.05 C 647.46 684.05 642.76 681.62 638.50 680.12 C 638.06 677.08 636.90 674.04 638.41 671.16 C 640.70 666.25 646.31 664.04 651.41 665.62 Z" fill="#ffffff" />
<path d="M 684.35 673.46 C 685.42 677.40 684.70 681.77 681.60 684.61 C 678.43 687.48 672.94 688.58 669.51 685.51 C 667.47 684.02 667.04 681.23 666.12 678.99 C 667.12 678.15 668.13 677.31 669.13 676.47 C 669.91 674.05 670.08 670.79 672.45 669.39 C 676.57 666.66 682.69 668.88 684.35 673.46 Z" fill="#ffffff" />
<path d="M 648.16 668.28 C 649.88 669.63 651.87 670.60 652.28 672.96 C 652.44 674.53 652.13 676.79 650.82 677.85 C 649.43 678.36 647.94 678.64 646.49 678.98 C 644.63 677.37 642.74 675.80 640.83 674.25 C 642.85 670.60 644.18 669.62 648.16 668.28 Z" fill="#d8d184" />
<path d="M 149.34 670.26 C 152.79 668.89 157.19 669.88 160.29 671.74 C 163.28 673.44 164.47 676.69 164.50 679.99 C 165.04 686.43 157.05 692.00 151.15 689.53 C 148.28 688.63 145.64 686.48 144.23 683.82 C 142.32 678.86 144.20 672.43 149.34 670.26 Z" fill="#5c8f75" />
<path d="M 1136.43 670.61 C 1139.45 669.47 1143.33 669.07 1146.20 670.82 C 1149.41 672.78 1150.97 676.32 1150.81 680.02 C 1151.37 686.13 1144.36 690.48 1138.90 690.13 C 1135.60 689.50 1132.28 687.22 1130.71 684.22 C 1129.92 681.98 1130.04 679.35 1130.36 677.03 C 1130.84 673.84 1133.61 671.72 1136.43 670.61 Z" fill="#5c8f75" />
<path d="M 677.86 673.18 C 679.18 674.02 680.01 675.70 680.94 676.93 C 679.88 678.48 678.88 680.22 677.54 681.55 C 675.92 682.19 674.15 682.49 672.46 682.90 C 671.01 679.24 671.86 676.70 673.43 673.27 C 674.86 673.15 676.45 672.83 677.86 673.18 Z" fill="#d8d184" />
<path d="M 156.23 674.36 C 156.72 677.36 159.21 682.86 155.66 684.71 C 153.49 684.92 150.98 684.21 149.60 682.45 C 148.12 680.35 149.26 677.83 149.71 675.57 C 151.87 675.11 154.05 674.75 156.23 674.36 Z" fill="#ffffff" />
<path d="M 1138.69 674.36 C 1140.38 674.67 1142.82 674.56 1144.17 675.76 C 1145.85 677.78 1146.35 681.32 1144.08 683.13 C 1142.51 684.79 1139.62 684.51 1137.50 684.79 C 1136.68 680.67 1136.77 678.14 1138.69 674.36 Z" fill="#ffffff" />
<path d="M 366.24 684.19 C 369.85 682.86 374.72 684.20 377.98 686.02 C 384.15 690.72 382.57 702.60 375.03 705.29 C 371.03 706.32 365.51 705.68 362.81 702.17 C 359.71 698.70 359.78 693.32 361.32 689.19 C 362.21 686.80 363.79 685.01 366.24 684.19 Z" fill="#5c8f75" />
<path d="M 920.40 684.38 C 924.23 683.33 927.95 683.01 931.05 685.93 C 935.22 690.77 935.48 699.05 930.46 703.43 C 927.52 705.76 923.01 706.18 919.47 705.31 C 913.52 703.07 911.13 695.89 913.38 690.17 C 914.51 686.81 917.05 685.14 920.40 684.38 Z" fill="#5c8f75" />
<path d="M 370.04 687.58 C 371.85 688.28 374.17 689.01 375.51 690.49 C 377.14 692.78 377.14 696.23 375.71 698.63 C 373.73 702.61 366.75 701.69 365.30 697.74 C 363.80 694.72 365.37 691.48 366.64 688.68 C 367.76 688.28 368.89 687.91 370.04 687.58 Z" fill="#ffffff" />
<path d="M 921.47 688.65 C 923.76 687.63 925.95 687.23 927.91 689.13 C 929.54 691.26 929.87 694.45 929.38 697.02 C 928.29 701.58 920.86 702.88 918.65 698.51 C 916.47 695.03 917.55 690.26 921.47 688.65 Z" fill="#ffffff" />
<path d="M 268.30 692.41 C 272.29 691.61 276.51 692.67 279.42 695.57 C 284.86 700.20 282.79 710.84 275.81 712.84 C 272.26 714.01 266.52 712.83 263.68 710.33 C 258.10 705.25 261.38 694.54 268.30 692.41 Z" fill="#5c8f75" />
<path d="M 1019.61 692.74 C 1021.80 692.12 1024.33 691.89 1026.54 692.53 C 1032.24 694.84 1035.03 702.09 1032.72 707.69 C 1030.62 712.16 1024.41 713.75 1019.93 713.17 C 1013.37 712.21 1010.24 704.26 1012.74 698.60 C 1014.16 695.98 1016.77 693.69 1019.61 692.74 Z" fill="#5c8f75" />
<path d="M 276.57 699.32 C 276.58 701.44 276.61 703.56 276.65 705.67 C 274.00 707.96 272.12 708.27 268.75 707.20 C 264.64 706.13 266.19 699.59 268.88 697.77 C 271.89 696.00 274.03 697.85 276.57 699.32 Z" fill="#ffffff" />
<path d="M 1025.38 697.60 C 1027.62 699.22 1028.99 703.13 1027.74 705.66 C 1026.12 707.87 1022.08 708.09 1019.65 707.43 C 1017.49 705.89 1017.88 702.03 1017.47 699.68 C 1020.11 698.04 1022.06 696.09 1025.38 697.60 Z" fill="#ffffff" />
</svg>