<?xml version="1.0" encoding="utf-8"?>
<!-- Generator: Adobe Illustrator 26.2.1, SVG Export Plug-In . SVG Version: 6.00 Build 0)  -->
<svg version="1.1" id="Home-1_xA0_Image_00000073683373782617950400000013795755310229410197_"
	 xmlns="http://www.w3.org/2000/svg" xmlns:xlink="http://www.w3.org/1999/xlink" x="0px" y="0px" viewBox="0 0 82.34717 32.08459"
	 style="enable-background:new 0 0 82.34717 32.08459;" xml:space="preserve">
<g>
	<g>
		<path d="M6.75103,18.62343c0.14387-0.34867-0.1822-1.12814-0.26927-1.45793c-0.25677-0.97254-0.58429-1.93375-1.01334-2.84436
			c-0.71188-1.5109-2.10319-3.48521-4.06304-2.94144c-1.76543,0.48983-1.54008,2.36602-1.07222,3.74566
			c0.70948,2.09212,1.95297,4.02202,3.19101,5.83513c0.84842,1.24251,1.73995,2.46388,2.69394,3.6281
			c0.14744,0.17994,0.74431,0.44814,0.91765,0.19037c2.24686-3.34138,4.45132-6.92706,5.84589-10.71535
			c0.47027-1.27746,1.36747-3.68486-0.20757-4.56884c-2.17997-1.22349-3.77961,1.14981-4.66563,2.81545
			c-1.00206,1.88378-1.75133,3.94691-2.30898,6.0058C5.72337,18.59693,6.67882,18.89004,6.75103,18.62343
			c0.42367-1.56423,0.97561-3.10943,1.62806-4.59184c0.47828-1.08668,1.01888-2.18773,1.7649-3.11881
			c0.39667-0.49507,1.28217-1.50663,2.03644-1.23963c0.49317,0.17458,0.52821,1.0282,0.49922,1.48024
			c-0.06172,0.9625-0.38532,1.91178-0.72588,2.80631c-0.86876,2.28189-2.0621,4.44449-3.29564,6.54619
			c-0.78815,1.34285-1.6049,2.67324-2.47396,3.96564c0.30588,0.06346,0.61177,0.12691,0.91765,0.19037
			c-1.93264-2.35855-3.77008-4.9266-5.11298-7.6683c-0.57207-1.16794-1.59089-3.17294-0.8104-4.46197
			c0.29381-0.48524,1.05547-0.91829,1.61089-0.66943c0.7306,0.32734,1.23782,1.28658,1.58075,1.96053
			c0.47284,0.92925,0.82339,1.92397,1.10181,2.92737c0.09547,0.34406,0.45571,1.25532,0.32756,1.5659
			C5.69783,18.56232,6.63676,18.90039,6.75103,18.62343z"/>
	</g>
</g>
<g>
	<path d="M18.81433,8.12405c-0.48484,0.75624-0.0395,1.30931,0.77881,1.44103c0.84581,0.13614,1.36036-0.18925,1.89734-0.80827
		c1.38509-1.59672,2.35478-3.59491,3.36288-5.43815c0.22141-0.40483,0.44026-0.8114,0.67069-1.2112
		c0.07333-0.12723,0.17063-0.2533,0.23241-0.38621c0.09004-0.19369,0.20093-0.10521-0.08283-0.07581
		c-0.20076-0.0244-0.40153-0.0488-0.60229-0.0732c-0.23961-0.12462-0.06784-0.14534-0.13613,0.05921
		c-0.04604,0.13791-0.04068,0.31692-0.06104,0.46067c-0.07334,0.51779-0.15395,1.03457-0.23329,1.55146
		c-0.27347,1.78165-0.54715,3.56325-0.8071,5.34694c-0.72534,4.97699-1.37813,9.97101-1.7774,14.98591
		c-0.20799,2.61243-0.35656,5.23825-0.2861,7.85974c0.00804,0.29908,1.00474,0.33535,0.99759,0.06932
		c-0.10006-3.72288,0.21148-7.45796,0.58629-11.1587c0.391-3.86055,0.8988-7.70882,1.45705-11.54845
		c0.34584-2.37866,0.74372-4.75049,1.07388-7.13132c0.02004-0.14453,0.09798-0.381,0.06159-0.52632
		c-0.08391-0.33507-0.7024-0.37473-0.95997-0.20564c-0.21736,0.14269-0.34792,0.47761-0.4705,0.69279
		c-0.29238,0.51327-0.57115,1.03437-0.85518,1.55227c-0.79509,1.44975-1.59084,2.91727-2.55261,4.26523
		c-0.28902,0.40508-0.67155,1.04622-1.13571,1.27734c-0.48591,0.24196-0.39488-0.52767-0.20379-0.82572
		C19.9246,8.05414,18.97103,7.87964,18.81433,8.12405L18.81433,8.12405z"/>
</g>
<g>
	<path d="M35.21973,28.56396c0.16254-2.87189,0.34811-5.74265,0.54478-8.61238c0.33749-4.92451,0.68494-9.85549,1.23878-14.76125
		c0.17602-1.55913,0.25519-3.282,0.78123-4.77509c0.09237-0.26218-0.85405-0.58452-0.95033-0.31124
		c-0.44382,1.25972-0.53389,2.69364-0.69208,4.00911c-0.27557,2.29162-0.48262,4.59163-0.67643,6.8914
		c-0.39636,4.70317-0.71736,9.41285-1.00922,14.12357c-0.06452,1.04141-0.12811,2.0829-0.18707,3.12464
		C34.25123,28.57375,35.20688,28.79102,35.21973,28.56396L35.21973,28.56396z"/>
</g>
<g>
	<path d="M41.87965,12.56577c-0.49572,1.56785-1.0016,3.59217-0.48936,5.20488c0.61868,1.94779,3.55065,1.7116,4.59816,0.30346
		c0.84385-1.13436,1.12869-2.66995,1.33635-4.03326c0.24049-1.57889,0.37367-3.22821-0.41346-4.68501
		c-1.05108-1.94532-3.72473-2.89663-5.63131-1.57112c-1.23986,0.86199-1.98695,2.49167-1.43668,3.95547
		c0.31435,0.83621,0.97355,1.58138,1.71298,2.07591c-0.0335-0.07016-0.06699-0.14032-0.10049-0.21048
		c-1.76997,2.14074-4.37048,3.75165-6.77865,5.04616c-2.568,1.38042-5.30195,2.47472-8.13606,3.16693
		c-2.3044,0.56282-4.78993,0.96544-7.1631,0.65713c-1.41564-0.18391-3.17519-0.78033-3.27382-2.45903
		c-0.06774-1.15303,0.51809-2.23272,1.4569-2.87637c2.22051-1.52237,5.38884-0.97297,7.7082-0.01508
		c4.36633,1.80328,7.44578,5.70238,9.06184,10.04742c0.0994,0.26725,1.07215,0.30319,0.96973,0.02781
		c-1.57834-4.24361-4.52249-7.98653-8.65356-9.9751c-2.71977-1.30921-6.32246-2.09418-9.19938-0.7992
		c-1.00318,0.45156-1.84917,1.22277-2.17813,2.295c-0.4964,1.61798,0.30583,2.91536,1.79593,3.56797
		c2.02372,0.88633,4.46677,0.79921,6.61179,0.54838c2.87206-0.33584,5.68236-1.12716,8.35246-2.22722
		c2.79567-1.15179,5.48101-2.6207,7.87093-4.48059c0.8793-0.68429,1.78134-1.42229,2.49528-2.28578
		c0.07447-0.09007-0.03394-0.16597-0.10049-0.21048c-0.35424-0.23692-0.9295-0.83082-1.21532-1.3135
		c-0.68124-1.15042-0.51055-2.42506,0.28989-3.47739c0.54458-0.71596,1.40451-1.32781,2.34628-1.24117
		c0.97656,0.08985,1.78242,0.90732,2.22505,1.72649c0.66612,1.23278,0.65129,2.6037,0.47871,3.9574
		c-0.16281,1.27707-0.38093,2.60471-0.92533,3.7826c-0.33453,0.72381-0.89692,1.53033-1.74826,1.66138
		c-0.85632,0.13181-1.30419-0.44436-1.46285-1.2276c-0.3111-1.53571,0.12117-3.32724,0.58619-4.79798
		C42.94442,12.46867,41.97405,12.26719,41.87965,12.56577L41.87965,12.56577z"/>
</g>
<g>
	<path d="M47.48044,13.52633c0.71462-0.43302,1.43608-0.85593,2.16656-1.26163c0.41142-0.2285,0.90872-0.39852,1.29589-0.65844
		c0.17754-0.11919,0.42947,0.07268-0.21636-0.21735c-1.01062-0.45386-0.29005-0.25382-0.36777-0.10395
		c-0.03682,0.071,0,0.26238,0,0.3427c0,2.12872,0,4.25743,0,6.38615c0,0.7037,0,1.4074,0,2.1111
		c0,0.28288,0.89858,0.55915,0.9599,0.28036c0.77155-3.5082,1.74419-7.07571,3.21494-10.35798
		c0.39671-0.88534,0.8367-1.79058,1.45247-2.54726c0.2228-0.27379,0.47731-0.55018,0.78399-0.73164
		c0.11241-0.06652,0.22421-0.11261,0.3487-0.15155c0.07109-0.02223,0.23857,0.00282,0.13982-0.02588
		c0.78477,0.22808,1.14656,1.64807,1.26503,2.37309c0.21028,1.28691,0.11193,2.62036-0.05435,3.90649
		c-0.255,1.97246-0.70033,3.95038-1.31376,5.84373c-0.0868,0.2679,0.82136,0.53402,0.95989,0.28036
		c0.95223-1.74362,2.12955-3.65245,3.71413-4.88376c0.28702-0.22303,0.84118-0.65834,1.24125-0.55482
		c-0.04665-0.01207,0.1934,0.19281,0.25837,0.28517c0.12487,0.17754,0.20377,0.38608,0.26795,0.592
		c0.36428,1.1687,0.26825,2.48613,0.21696,3.69094c-0.05658,1.32889-0.17341,2.66155-0.12254,3.99244
		c0.03152,0.82463,0.08059,1.91926,0.79887,2.47158c0.83278,0.64037,1.92205,0.37967,2.73378-0.1428
		c1.15028-0.74039,1.95748-1.97933,2.60614-3.15437c1.16648-2.11309,2.01385-4.47178,2.58388-6.81685
		c0.06865-0.28241-0.89454-0.5492-0.95989-0.28036c-0.48651,2.00148-1.19109,3.98908-2.08334,5.84379
		c-0.62625,1.30177-1.37704,2.63356-2.47318,3.6002c-0.45425,0.40058-0.9424,0.68496-1.52563,0.8449
		c-0.05173,0.01419-0.14894,0.02629-0.20345,0.01208c0.12405,0.03233,0.09201,0.03996,0.03452-0.01608
		c-0.1251-0.12195-0.2053-0.27319-0.27158-0.43286c-0.42236-1.01751-0.30832-2.28185-0.2673-3.35478
		c0.0526-1.37566,0.17427-2.75239,0.13837-4.13004c-0.02419-0.92801-0.05412-2.09817-0.71529-2.8292
		c-0.6937-0.76698-1.82043-0.80909-2.67455-0.31928c-1.18965,0.68223-2.07267,1.92489-2.83888,3.02919
		c-0.50827,0.73254-0.99087,1.48956-1.41846,2.27253c0.31996,0.09345,0.63993,0.18691,0.95989,0.28036
		c0.57331-1.76951,0.99314-3.61188,1.25981-5.45128c0.30212-2.08399,0.74878-5.46765-1.21154-6.93612
		c-1.62767-1.21928-2.95111,0.15403-3.76894,1.54233c-1.25898,2.13715-2.02225,4.5899-2.72387,6.95498
		c-0.49154,1.65694-0.94075,3.33195-1.31208,5.02038c0.31997,0.09345,0.63993,0.18691,0.9599,0.28036c0-2.02367,0-4.04734,0-6.07101
		c0-0.88953,0.10778-1.85545,0-2.73996c-0.11198-0.91898-1.35466-0.34447-1.822-0.1033
		c-0.99267,0.51225-1.95687,1.08415-2.91201,1.66291C46.38891,13.27252,47.21793,13.6854,47.48044,13.52633L47.48044,13.52633z"/>
</g>
<g>
	<path d="M73.01217,14.57427c-0.05099,0.00759,0.19055,0.00722,0.26388,0.00986c0.24998,0.00901,0.4996,0.02447,0.74977,0.02876
		c0.59325,0.01016,1.19021-0.02446,1.77264-0.143c1.36045-0.2769,2.47153-1.1158,2.82628-2.50046
		c0.39813-1.55397-0.16327-3.28555-1.56206-4.1375c-1.4165-0.86274-3.02482-0.54898-4.06934,0.71907
		c-2.90531,3.52705-2.04742,13.02713,4.16958,11.51659c2.31119-0.56155,4.62262-2.34006,5.18079-4.76392
		c0.06787-0.29472-0.88301-0.59134-0.94173-0.33637c-0.35774,1.5535-1.55673,2.94884-2.88459,3.76314
		c-0.67165,0.41189-1.41087,0.69666-2.1771,0.87537c-0.54628,0.12741-1.14823,0.23497-1.69118,0.03317
		c-0.91725-0.34091-1.46596-1.38877-1.77174-2.25289c-0.78174-2.20911-0.68639-4.92999,0.22095-7.08866
		c0.47439-1.12862,1.53753-2.66484,2.95163-2.45523c1.45657,0.21591,1.90599,2.31554,1.69716,3.49514
		c-0.26401,1.4913-1.34348,2.40347-2.79348,2.67127c-0.55789,0.10303-1.13085,0.11305-1.69644,0.09501
		c-0.32794-0.01046-0.66402-0.05849-0.99026-0.00992c-0.23223,0.03457-0.00049,0.26141,0.07688,0.31803
		C72.52566,14.54482,72.79088,14.60721,73.01217,14.57427L73.01217,14.57427z"/>
</g>
</svg>
