<?xml version="1.0" encoding="utf-8"?>
<!-- Generator: Adobe Illustrator 26.2.1, SVG Export Plug-In . SVG Version: 6.00 Build 0)  -->
<svg version="1.1" id="JustMarried-1_xA0_Image_00000097469476957612628150000004060625930645514639_"
	 xmlns="http://www.w3.org/2000/svg" xmlns:xlink="http://www.w3.org/1999/xlink" x="0px" y="0px"
	 viewBox="0 0 783.34418 415.48633" style="enable-background:new 0 0 783.34418 415.48633;" xml:space="preserve">
<g>
	<path d="M647.93903,308.91641c-1.29968,0.65695-2.07098,0.86362-2.59552,1.34128
		c-3.72986,3.39688-7.37103,6.89148-11.1156,10.27182c-3.69598,3.33652-8.09338,5.58847-12.62366,7.50281
		c-4.51514,1.90796-10.75751-0.90182-12.8042-5.5426c-2.15363-4.8833-1.64392-9.80661-0.17438-14.75214
		c0.30518-1.02713,0.34637-2.13272,0.54767-3.45441c-0.70319,0.15619-1.146,0.12521-1.39728,0.32959
		c-4.52863,3.68311-8.83081,7.68536-13.59998,11.0209c-5.10175,3.56808-10.40625,7.02667-16.05139,9.5867
		c-5.68402,2.5777-12.10437,2.77545-18.18982,1.45386c-5.32654-1.1568-9.98859-4.13925-13.37091-8.52206
		c-2.3089-2.99188-4.07935-6.39929-6.00177-9.4787c-1.89899,3.39954-3.83594,7.13055-6.02148,10.70975
		c-2.50598,4.10391-5.02777,8.22809-7.92365,12.05511c-2.63208,3.47833-5.89215,6.43283-9.93616,8.33179
		c-4.07965,1.91577-12.36151,0.30063-15.48621-3.02249c-3.32004-3.53076-6.11469-7.31738-7.89459-11.96783
		c-1.35257-3.53387-2.59521-6.92474-2.6864-10.76614c-0.05267-2.22116-0.80811-4.42566-1.3457-7.13309
		c-1.45215,1.91971-2.64722,3.35739-3.6817,4.90262c-1.33206,1.98978-2.54654,4.05896-3.79178,6.10605
		c-1.81738,2.98782-3.55908,6.02341-5.4382,8.97159c-2.62152,4.11298-5.33127,8.16986-8.01953,12.24002
		c-2.69293,4.0773-5.21338,8.28665-8.15198,12.17957c-5.31082,7.03543-10.57129,14.16623-17.44833,19.81409
		c-4.59274,3.77176-9.59406,6.73526-15.91452,6.17041c-4.70709-0.42068-9.40839-4.04834-10.79346-9.30603
		c-2.05444-7.7988-0.97141-15.53534-0.83752-23.28522c0.05444-3.15189,1.40842-6.27588,2.12219-9.42361
		c0.50391-2.22253,0.92596-4.46356,1.38339-6.69659c0.61838-3.01904,1.22482-6.04056,1.85614-9.05688
		c0.73935-3.53271,1.90952-7.03384,2.14673-10.5983c0.29135-4.37878,0.65118-8.76007-0.47842-13.23801
		c-0.96426-3.8223-2.41605-7.25134-4.48737-10.4942c-1.01807-1.59396-2.21085-3.07635-3.76685-5.21802
		c-1.12036,3.18869-2.04779,5.90552-3.02988,8.60245c-1.05286,2.89133-2.10883,5.78326-3.25101,8.63992
		c-1.50845,3.77261-3.0318,7.54236-4.67883,11.25562c-1.63132,3.6778-3.46423,7.26566-5.13416,10.927
		c-1.46405,3.20999-2.56412,6.61371-4.28528,9.67282c-3.56894,6.34329-7.25424,12.63876-11.24612,18.72128
		c-3.8974,5.93854-7.97815,11.81668-13.45569,16.47702c-4.57666,3.8938-9.79926,6.01025-15.95975,5.15659
		c-4.17935-0.57919-6.88205-3.12939-8.26904-6.83188c-2.22351-5.93542-3.13623-12.18542-2.54901-18.50003
		c0.3996-4.2966,1.43634-8.53378,2.18463-12.79819c0.08276-0.47168,0.12781-0.95007,0.21451-1.4209
		c0.82745-4.49432,1.78482-8.96915,2.45554-13.48663c0.64819-4.36566,1.52899-8.79767,1.34073-13.15878
		c-0.19571-4.53375-1.54947-9.01752-2.39685-13.52313c-0.27051-0.12787-0.54099-0.25574-0.81149-0.38358
		c-0.6084,0.57269-1.4187,1.03799-1.79028,1.73669c-1.62286,3.05148-2.99857,6.23804-4.689,9.24921
		c-2.38699,4.25192-4.79388,8.51337-7.52472,12.54559c-2.60159,3.84134-5.5502,7.45886-8.4899,11.05746
		c-4.07172,4.98431-8.96472,9.10938-14.19345,12.81952c-6.44379,4.57236-13.74759,6.24124-21.32977,4.44046
		c-5.81815-1.38177-10.33331-4.98428-13.08667-10.76038c-3.07916-6.45947-3.96191-13.2001-4.01038-20.17957
		c-0.01901-2.73972-0.00311-5.47974-0.00311-8.02365c-5.36996,5.90015-10.41235,11.8895-15.96297,17.36356
		c-3.12308,3.08005-9.6869,3.69153-13.85043,0.36813c-0.81073-0.64709-1.75256-1.82874-1.70844-2.71786
		c0.13623-2.74475-2.1443-5.30164-0.56795-8.11197c0.14433-0.25739,0.13557-0.62576,0.12633-0.94052
		c-0.16193-5.52902,2.43365-10.14941,4.94754-14.76569c2.77162-5.0896,6.41634-9.5051,11.60806-12.21344
		c5.00398-2.61044,10.25227-4.56271,16.07655-2.43173c1.30716,0.47827,2.74896,0.58865,4.16837,0.87646
		c1.42599-2.59677,2.94495-5.38406,4.48401-8.16019c2.02579-3.65408,9.57449-4.29959,12.11411-1.33908
		c0.84567,0.98578,0.89902,2.99902,0.70609,4.46237c-0.56555,4.289-1.40283,8.54413-2.20377,12.79932
		c-0.38828,2.06299-1.01779,4.08115-1.39029,6.1463c-0.89917,4.98502-1.19284,10.14792-2.69131,14.93866
		c-1.82983,5.85025-0.72308,11.68878-1.18478,17.50986c-0.32471,4.09372,1.367,7.39362,4.1832,10.15692
		c1.57269,1.54318,3.41763,2.09088,5.79767,1.71478c7.59415-1.20007,12.55026-6.49896,17.8764-11.1767
		c2.86694-2.51782,5.54135-5.31302,7.96832-8.25851c2.85269-3.46219,5.49655-7.12292,7.94727-10.88251
		c2.47858-3.80249,4.74765-7.75922,6.85263-11.78223c1.8454-3.52682,3.57938-7.15363,4.89685-10.90005
		c0.85953-2.44431,1.16705-5.01251-0.11655-7.77673c-1.58838-3.42068-1.28381-7.16162,0.63016-10.54916
		c1.12714-1.99487,7.11014-2.71729,8.78876-1.18088c1.75858,1.60953,0.94431,3.58929,0.83859,5.47672
		c-0.02841,0.50766-0.11411,1.11304,0.10895,1.51791c1.76556,3.20419,3.58154,6.38104,5.41678,9.54617
		c2.20151,3.79678,4.59299,7.4938,6.59305,11.39261c1.01019,1.96924,1.69766,4.25378,1.90829,6.45535
		c0.64072,6.6962,0.0451,13.37695-1.46707,19.91132c-0.84167,3.63712-2.41208,7.09921-3.4566,10.69754
		c-1.13565,3.91214-2.04056,7.8912-3.04932,11.84024c-0.75253,2.94608-1.75204,5.85504-2.19543,8.84665
		c-0.4184,2.82263-0.20636,5.73413-0.36118,8.60172c-0.12122,2.24438,0.36588,4.50595,2.17026,5.64432
		c2.1456,1.35373,4.048-0.6282,5.75348-1.72296c5.36514-3.444,9.46048-8.24811,13.26645-13.25858
		c3.20572-4.22025,6.32071-8.53436,9.13223-13.02222c2.95538-4.7175,5.61179-9.63364,8.19513-14.56958
		c2.30405-4.40234,4.38742-8.92398,6.45471-13.44482c1.04034-2.27505,1.76553-4.69226,2.74661-6.99695
		c1.28058-3.00839,2.72763-5.94623,3.99506-8.95981c0.61578-1.46426,1.03809-3.01767,1.45676-4.55551
		c0.95752-3.51703,1.24429-7.3905,2.95837-10.47809c1.66693-3.00275,0.00269-5.11868-0.7049-7.29321
		c-1.26825-3.89743-0.52191-7.255,1.12305-10.68018c0.39783-0.82831,0.62518-1.77496,1.16483-2.49088
		c1.01749-1.34995,6.09619-2.21962,8.04147-1.24756c1.80081,0.8999,1.86206,2.74979,1.81924,4.5546
		c-0.03412,1.43762,0.11682,2.87927,0.09192,4.3175c-0.07562,4.36154,2.44501,7.64099,4.68616,10.96881
		c3.09302,4.59268,6.71722,8.8526,9.5199,13.60535c1.41754,2.40384,1.63403,5.5567,2.19955,8.40933
		c0.45523,2.29636,1.05536,4.69455,0.82523,6.97015c-0.55591,5.49704-1.44925,10.96841-2.41727,16.41269
		c-0.80899,4.54947-1.80759,9.07297-2.92215,13.55832c-1.18262,4.75916-2.72012,9.4306-3.88431,14.19373
		c-1.26019,5.15591-2.60925,10.33313-3.23026,15.58255c-0.27621,2.33524,1.02661,4.90692,1.81882,7.30316
		c0.63303,1.91464,2.56314,1.29614,3.42203,0.73267c3.78433-2.4827,7.77066-4.86807,10.93588-8.03601
		c5.08667-5.09103,9.79379-10.60492,14.26685-16.25256c4.09381-5.16891,7.64981-10.76254,11.47284-16.14771
		c2.10889-2.97067,4.41666-5.8093,6.38437-8.86853c2.04602-3.181,3.71097-6.60464,5.68546-9.83484
		c2.86154-4.68127,6.0112-9.19336,8.71994-13.95837c1.37027-2.4104,2.62082-5.15405,2.91766-7.85773
		c0.76962-7.00922,3.67435-13.11517,7.06693-19.06955c1.89957-3.33401,8.77802-4.3035,11.44678-1.72723
		c0.30035,0.28995,0.47665,0.86172,0.46506,1.29636c-0.07025,2.63351-0.10565,5.27542-0.35876,7.89459
		c-0.26315,2.72363-0.75858,5.42484-1.15442,8.13556c-0.73944,5.06396-1.53101,10.12106-2.19943,15.19437
		c-0.3334,2.53088-0.41193,5.09433-0.6637,7.6373c-0.17853,1.80322-0.63129,3.59607-0.63962,5.39505
		c-0.00949,2.08035,0.23444,4.17758,0.5502,6.23969c0.3801,2.48254,0.62524,5.06387,1.52859,7.36722
		c0.98132,2.50238,2.65173,4.73456,4.28589,7.53769c3.62378-2.77719,7.07916-4.72586,9.59705-7.51956
		c3.73993-4.1496,6.88458-8.84839,10.14874-13.40924c1.83942-2.57004,3.71552-5.19193,5.02551-8.043
		c1.64166-3.57272,3.31769-7.08279,2.8999-11.43973c-0.45538-4.7486,0.07526-9.61179,2.32727-14.09744
		c1.62427-3.23517,2.63184-6.8201,4.52435-9.87067c2.63373-4.24524,6.13617-7.78973,11.12958-9.3728
		c2.46326-0.78091,4.95502-2.06665,7.43127-2.06058c3.02496,0.00742,6.18964,0.76486,9.03241,1.87039
		c3.12677,1.21588,3.80688,4.27805,4.48773,7.42471c0.63477,2.93307,0.20386,5.68607-0.36407,8.36826
		c-0.73029,3.44891-3.26056,5.9982-5.73859,8.42542c-3.65588,3.58084-7.74744,6.29916-13.01971,6.90936
		c-1.60522,0.18579-3.15308,0.86777-5.35992,1.50525c0,3.72113,0.04962,7.84015-0.0163,11.95731
		c-0.04865,3.04227,0.73474,5.84326,2.54138,8.22598c5.92535,7.81485,10.54443,8.78506,18.32013,5.31848
		c4.65588-2.07565,9.16632-4.62695,13.38708-7.48816c4.46869-3.0293,8.49219-6.71039,12.75568-10.04865
		c3.35974-2.63062,6.995-4.94736,10.13043-7.81595c3.33441-3.05078,6.35052-6.48053,9.27777-9.93768
		c3.95703-4.67334,8.79303-7.9866,14.17126-10.86078c3.91699-2.09332,7.93756-3.45294,12.20972-3.60034
		c4.78613-0.16513,9.54028,0.58044,13.216,4.91037c1.1004-1.68341,2.18817-3.09985,3.01764-4.65417
		c8.96698-16.80397,17.89349-33.62964,27.00177-50.77072c-1.49567,0-2.44458-0.08588-3.37317,0.01503
		c-3.78583,0.41127-7.55573,1.0096-11.34979,1.29697c-5.78583,0.4382-11.60248,1.09369-17.37695,0.87836
		c-5.50684-0.20537-10.95862-1.59677-16.46783-2.11281c-4.58411-0.42934-8.61121-2.18765-12.69672-4.05838
		c-5.00446-2.29149-9.18323-5.58369-11.69312-10.416c-2.22449-4.28294-2.23553-9.07527-0.83295-13.70607
		c0.78448-2.59018,1.87897-5.10318,3.02106-7.56403c1.37689-2.9669,2.9303-3.75827,6.17578-3.42747
		c1.02338,0.10429,2.03131,0.35922,3.63623,0.65329c-0.41949,2.6633-0.79181,5.28955-1.25446,7.89981
		c-0.60968,3.43997-1.64453,6.84604-1.85321,10.30548c-0.27954,4.63371,1.99023,8.2757,5.68909,11.056
		c4.95593,3.7253,10.5766,5.58009,16.6499,6.61473c9.71167,1.6544,19.44855,0.98651,29.16016,0.6032
		c4.96405-0.19594,9.92096-1.3166,14.79834-2.3941c1.0918-0.24121,1.96838-1.96896,2.71844-3.15504
		c3.02679-4.78612,5.91217-9.662,8.95447-14.43797c2.19617-3.44757,4.84558-6.63576,6.76379-10.22255
		c1.87952-3.51459,4.52191-6.36221,6.87885-9.46854c3.12921-4.12439,6.01642-8.45625,9.40265-12.35597
		c4.29077-4.94133,8.85956-9.65898,13.52856-14.24916c4.53247-4.45589,9.63123-8.30179,15.28503-11.19823
		c2.95093-1.51173,6.34973-2.1609,9.56238-3.14705c3.32013-1.01913,6.5484-0.97955,10.04053-0.2121
		c4.12189,0.90581,7.65497,5.00992,7.64044,8.95277c-0.01904,5.20618-1.68109,9.8212-3.8493,14.50526
		c-3.45172,7.45721-8.24084,13.93973-13.77734,19.80237c-5.03259,5.32901-10.48004,10.36131-16.26544,14.85364
		c-4.45459,3.45891-9.70795,5.89307-14.62421,8.7518c-2.79773,1.62675-5.55078,3.36287-8.47052,4.73874
		c-3.41876,1.61108-6.89233,3.33342-10.53448,4.18089c-3.85742,0.89749-5.36475,3.7207-7.0874,6.54701
		c-1.64026,2.69109-3.13855,5.46906-4.68634,8.21613c-1.58301,2.80989-3.09528,5.66127-4.74072,8.43382
		c-1.49603,2.52061-3.15009,4.94688-4.6972,7.43788c-2.30688,3.71439-4.71338,7.37541-6.83655,11.19315
		c-2.83405,5.09589-5.38702,10.34729-8.15448,15.48129c-2.51953,4.67404-5.35986,9.18491-7.69165,13.94739
		c-1.83917,3.75644-3.09033,7.79819-4.65997,11.69012c-1.07178,2.65765-2.28644,5.25787-3.35071,7.91833
		c-0.57849,1.44617-1.0896,2.93875-1.435,4.45508c-1.07837,4.73532-2.08545,9.4873-3.07751,14.24173
		c-0.83087,3.98196-2.03015,7.94952-2.28302,11.97272c-0.27136,4.31747,0.24084,8.70541,0.67035,13.0369
		c0.22052,2.22391,1.08008,4.37701,1.52075,6.58801c0.93146,4.67352,4.4082,7.48846,7.49121,10.64389
		c2.83887,2.90555,6.58569,3.81781,10.21893,4.96906c1.01385,0.32129,2.28125,0.28827,3.32196,0.00793
		c7.90509-2.12958,15.37903-5.24933,21.89563-10.30862c4.07849-3.16641,8.0285-6.49908,12.01801-9.77917
		c6.34058-5.21298,10.9903-11.88239,15.32239-18.69116c2.39923-3.77075,4.38269-8.0639,5.39404-12.39249
		c1.18158-5.05685,1.16034-10.42139-3.02643-15.00604c-6.00299,4.07788-10.24335,8.92941-8.49872,16.78726
		c-4.1095,1.76822-6.46039-0.65625-6.72015-4.33035c-0.0957-1.35461-0.06329-2.71844-0.08411-4.07812
		c-0.08148-5.33109,3.14844-9.27649,8.03241-11.30566c2.66388-1.10672,5.2077-1.16388,7.86542-1.23511
		c6.13708-0.16461,8.57782,3.44629,9.36334,8.56375c0.71564,4.6626-0.13013,9.26086-2.29236,13.57642
		c-1.99561,3.98279-3.33856,8.37988-5.82178,12.01135c-4.02704,5.88931-7.75507,12.07437-13.13806,16.95496
		c-2.33728,2.1192-4.28802,4.70905-6.78027,6.60355c-4.79828,3.64734-9.72144,7.17343-14.85687,10.31851
		c-3.26562,1.99991-6.88312,3.66168-10.56152,4.70056c-7.02136,1.98294-14.02191,2.57736-21.25586-0.20035
		c-5.1676-1.98422-9.53424-4.79373-13.21936-8.66537c-3.63367-3.8176-6.60992-8.12433-7.8598-13.45764
		c-1.3432-5.73111-2.63062-11.4747-2.09784-17.37741c0.42535-4.71231,1.29321-9.38641,2.01453-14.06979
		C646.59509,316.78894,647.22943,313.185,647.93903,308.91641z M716.36713,209.42307
		c0.22784,0.20348,0.45557,0.40697,0.68341,0.61044c0.81335-0.22685,1.68384-0.33662,2.43005-0.70099
		c3.14978-1.53795,6.35529-2.9942,9.36926-4.77086c6.10675-3.59987,12.51929-6.86261,18.03467-11.23672
		c6.38098-5.06061,12.07806-10.99191,17.02802-17.60602c3.24396-4.33453,6.4541-8.62267,8.91406-13.47118
		c2.44055-4.81021,3.85382-9.67807,2.40186-15.09911c-0.71283-2.66168-2.87854-4.35875-4.87866-3.45242
		c-1.06396,0.48212-2.15118,1.02661-3.03583,1.77118c-3.87079,3.25824-7.9646,6.32199-11.4281,9.9769
		c-5.1051,5.38734-9.88776,11.10129-14.53577,16.89432c-3.98138,4.96222-7.69122,10.15434-11.3175,15.38593
		c-3.5838,5.17021-6.94568,10.49602-10.33527,15.79814C718.48273,205.42264,717.47131,207.4525,716.36713,209.42307z
		 M618.98956,320.94739c0.36053,1.01328,0.50854,2.22803,1.18518,2.94174c0.27509,0.29013,1.76471-0.38953,2.58698-0.83823
		c1.61273-0.87991,3.19061-1.84134,4.70056-2.88794c2.70038-1.87167,5.5238-3.62552,7.961-5.80322
		c3.56378-3.18439,6.85986-6.67209,10.21625-10.08347c2.00433-2.03714,4.37048-3.91266,5.73956-6.33286
		c1.83508-3.24396,2.49469-7.15762,4.35913-10.37854c1.37537-2.37585,0.17133-3.76572-0.80878-5.27719
		c-2.31213-3.56543-4.07043-3.96945-7.87189-1.97549c-5.27722,2.76804-9.35297,7.0065-12.73981,11.73096
		c-3.96521,5.53119-7.29657,11.51288-11.01666,17.22507C620.98456,312.8252,619.28687,316.53754,618.98956,320.94739z
		 M247.6032,318.45859c5.95766-1.99985,9.25563-6.38242,12.32457-10.42667c4.80325-6.32968,10.67712-12.19174,12.28226-20.26456
		c-2.00797-2.34549-4.53052-3.45728-6.99921-1.78006c-2.23483,1.51828-4.2377,3.64993-5.74911,5.90845
		c-4.03044,6.02261-8.16837,12.04388-10.38907,19.04755C248.35416,313.20917,248.13835,315.63437,247.6032,318.45859z
		 M554.73993,293.92831c2.0705-0.23077,4.06232-0.00439,5.62671-0.71674c3.71844-1.69324,7.04041-4.0408,9.39728-7.55096
		c1.85492-2.7626,3.45807-5.6911,2.96887-9.05188c-0.31696-2.17767-1.39764-4.29175-2.38623-6.31201
		c-1.22412-2.50156-3.02606-2.6597-5.02771-0.67072c-4.16022,4.13382-6.45569,9.33749-8.24817,14.76614
		C556.11908,287.27405,555.6087,290.30161,554.73993,293.92831z"/>
	<path d="M329.84708,107.22362c0.53986-4.56422,0.87146-9.08765,1.65271-13.53204c0.95258-5.41892,2.32852-10.76214,3.43286-16.1562
		c0.63583-3.1058,1.02505-6.26196,1.65604-9.3689c0.66986-3.29843,1.4989-6.56444,2.25021-9.84649
		c0.57672-2.51963,1.09732-5.05305,1.72522-7.55972c0.43304-1.72875,0.93768-3.44671,1.53223-5.12633
		c1.14767-3.24199,2.32135-6.47752,3.59641-9.67095c1.31461-3.29248,2.44189-6.72175,4.23364-9.74607
		c2.25162-3.80066,4.98511-7.3375,7.72977-10.81532c1.36353-1.72775,7.68002-2.08981,9.27774-0.71595
		c0.52823,0.45424,1.02896,1.47926,0.88504,2.08796c-0.87064,3.68322-1.92188,7.32413-2.93295,10.97356
		c-0.53961,1.94768-1.18732,3.86759-1.66769,5.82907c-0.97281,3.97214-1.79715,7.98146-2.81592,11.94118
		c-0.59915,2.32866-1.50955,4.57548-2.17691,6.88885c-0.5473,1.89721-1.01712,3.82395-1.39075,5.76276
		c-1.05768,5.48894-1.91125,11.02066-3.1001,16.48003c-1.48328,6.81142-3.24918,13.56091-4.82547,20.35282
		c-0.31839,1.37184-0.33533,2.81364-0.57303,4.96287c1.5997-0.60165,2.71445-0.94248,3.76221-1.42789
		c6.10498-2.82841,11.62271-6.6033,16.78748-10.86082c4.27039-3.5203,8.63785-7.01297,11.28024-12.07863
		c1.94156-3.72225,7.83264-3.88477,10.76257-2.36801c0.67181,0.34779,1.30835,1.84486,1.11288,2.59068
		c-0.67514,2.57582-1.70877,5.05947-2.63739,7.56655c-0.75555,2.03986-1.62979,4.03835-2.32031,6.0991
		c-1.13181,3.37755-2.18256,6.78304-3.21921,10.19141c-0.79623,2.61797-1.53125,5.25491-2.2695,7.89015
		c-0.62976,2.2483-1.2406,4.50221-1.82687,6.76221c-0.19003,0.73248-0.27573,1.49204-0.55051,3.03072
		c1.2598-0.72533,2.07037-0.95627,2.52362-1.49039c3.55634-4.19086,7.32187-8.245,10.46826-12.73034
		c2.68362-3.82566,4.84952-8.06542,6.83792-12.31232c1.70468-3.64095,2.77945-7.57233,4.22955-11.33798
		c2.29541-5.96082,3.8866-12.18007,7.35223-17.71348c1.20773-1.92837,2.00064-3.9194,4.10962-5.10524
		c2.26511-1.27361,6.30511-1.46007,7.63345,0.5284c0.87134,1.30442,0.61392,3.63829,0.2814,5.40162
		c-0.41422,2.19646-1.51776,4.25298-2.16165,6.41811c-1.49847,5.03898-2.89832,10.10727-4.34103,15.16289
		c-1.32288,4.63573-2.79477,9.23487-3.93869,13.91428c-1.52615,6.24297-2.7132,12.56831-4.20325,18.82076
		c-1.61002,6.75589-2.5564,13.55003-2.27698,20.51854c0.17267,4.30519,1.22931,6.79822,4.74625,9.69069
		c2.13553-1.16942,4.57654-2.0804,6.4855-3.64185c3.76004-3.0755,7.55801-6.2225,10.72803-9.8718
		c4.02936-4.63855,7.62646-9.68559,11.0907-14.77384c4.56488-6.70489,8.93933-13.54805,13.15695-20.47704
		c2.10605-3.45996,2.91574-7.33219,2.74435-11.52444c-0.10992-2.68944,0.72394-5.45777,1.4256-8.1139
		c0.19406-0.73447,1.35873-1.52512,2.20312-1.70576c1.46051-0.31244,3.01981-0.14559,4.53568-0.22069
		c2.40933-0.11935,3.40869,1.26311,3.67599,3.41546c0.56726,4.56753,0.85529,9.18896,1.74722,13.69135
		c0.83624,4.22138,2.3367,8.30859,3.47906,12.47292c0.6239,2.27426,1.07178,4.59649,1.68045,6.87535
		c0.22394,0.83837,0.56601,2.18906,1.05991,2.28896c0.82068,0.16604,2.01276-0.25242,2.68991-0.83869
		c3.46741-3.00175,6.9592-5.99828,10.18179-9.25462c5.41934-5.47623,10.77328-11.03003,15.90158-16.77707
		c3.41589-3.82797,6.46729-7.99279,9.51874-12.12722c0.90167-1.22171,1.26837-2.84528,1.84436-4.29893
		c1.17615-2.96851,2.36554-5.9327,3.47778-8.92533c0.87085-2.34311,1.63379-4.72636,2.49615-7.24188
		c-0.36151-0.18116-0.68231-0.46137-1.02832-0.49707c-3.78882-0.39079-7.58221-0.73608-11.37302-1.10815
		c-5.78793-0.56808-11.08582-2.46241-16.30466-5.08786c-4.07828-2.05167-7.16971-4.88628-9.61792-8.49903
		c-1.08353-1.59883-1.63986-3.62506-2.13147-5.53551c-0.50671-1.96931-1.02844-4.06517-0.86636-6.05035
		c0.39557-4.84539,1.11462-9.67727,3.80368-13.93026c1.56357-2.47293,4.022-2.55793,6.55032-2.46937
		c4.14456,0.14518,4.29132,1.29112,3.19006,5.23959c-1.67349,6.00018-3.13107,12.01313-1.20557,18.599
		c1.83099,6.26243,6.14609,9.66734,11.29489,11.87404c5.33667,2.28724,11.20471,3.57631,17.22711,2.71375
		c2.4549-0.3516,3.93024-1.96952,5.01068-3.9587c2.31866-4.26881,4.42889-8.65248,6.8042-12.8884
		c2.77539-4.94961,5.75177-9.78158,9.77551-13.86831c2.08417-2.11675,6.2251-2.53011,8.85571-1.0289
		c1.33624,0.76253,1.3075,1.62783,0.80188,2.76601c-2.48145,5.58633-4.96033,11.1738-7.45691,16.75337
		c-0.72675,1.62433-1.55664,3.20409-2.23761,4.84641c-0.21594,0.52058-0.10248,1.17774-0.17798,2.38095
		c4.96863-2.05119,9.53961-3.794,13.98383-5.81549c4.04626-1.84044,7.98944-3.91865,11.91418-6.01178
		c3.75562-2.00294,7.41492-4.18562,11.14258-6.24203c3.58105-1.97553,7.18866-3.90357,10.79712-5.82888
		c4.81769-2.57047,9.59235-5.23053,14.49133-7.63649c3.3266-1.63368,6.82269-2.92751,10.26526-4.3182
		c3.95831-1.59901,7.90527-3.23837,11.92682-4.66384c2.41083-0.85456,4.94366-1.38145,7.4422-1.9679
		c2.43524-0.57158,4.93811-0.88565,7.33893-1.56748c7.53668-2.14036,15.24432-2.66534,22.96588-2.01402
		c6.51086,0.5492,13.01434,1.56007,18.8208,5.01303c5.58295,3.32001,8.34918,8.01331,7.66876,14.64735
		c-0.68433,6.67202-3.41736,12.30728-7.46191,17.63078c-3.04272,4.00488-6.47076,7.53408-10.38074,10.5296
		c-2.1463,1.64436-4.9743,2.44891-7.57721,3.40908c-0.57971,0.21384-2.05524-0.37725-2.16333-0.82721
		c-0.27344-1.13773-0.46234-2.73967,0.13428-3.55934c1.79614-2.46804,4.09003-4.56704,5.99011-6.968
		c2.388-3.01747,4.65735-6.13715,6.83441-9.3111c2.92926-4.27026,4.38794-8.9599,4.15021-14.24113
		c-0.2171-4.82047-3.13458-7.69002-6.78632-9.87766c-2.94257-1.7628-6.27509-2.84978-9.82227-2.82827
		c-5.27698,0.032-10.59229-0.29022-15.81897,0.24478c-4.34802,0.44506-8.60553,1.85415-12.87671,2.94043
		c-2.41925,0.6153-4.80701,1.37685-7.16949,2.18744c-2.8877,0.99078-5.80469,1.94524-8.58167,3.19791
		c-4.15381,1.87376-8.23138,3.92678-12.27734,6.02682c-4.69843,2.43869-9.33386,4.99918-13.98511,7.528
		c-4.33118,2.35476-8.63953,4.75152-12.97174,7.10441c-6.32434,3.43495-12.59924,6.9695-19.01788,10.2192
		c-3.37512,1.70879-7.00641,2.91409-10.53058,4.32542c-3.45667,1.38432-7.02454,2.54364-10.33197,4.21933
		c-1.13916,0.57714-1.80389,2.34022-2.39978,3.68782c-1.19141,2.69498-2.24707,5.45509-3.24554,8.22907
		c-1.23071,3.41923-2.29742,6.89748-3.5274,10.31696c-0.87915,2.44379-1.93768,4.82239-2.86725,7.24886
		c-1.22607,3.20043-2.38727,6.42568-3.60736,9.62848c-1.27399,3.34427-2.63989,6.65445-3.86493,10.01616
		c-1.41235,3.87556-2.69098,7.79961-4.07434,11.686c-0.72717,2.04309-1.64447,4.02151-2.30981,6.08278
		c-0.62543,1.93772-1.0415,3.94368-1.53369,5.92361c-1.82446,7.33912-3.89142,14.7156-2.73199,22.34011
		c0.75244,4.94844,2.27512,9.90619,6.8194,12.8571c1.48871,0.96675,3.68738,1.29906,5.52045,1.19576
		c7.13812-0.40224,12.97882-4.00856,18.43829-8.23376c4.52771-3.50414,9.22363-6.89279,13.23364-10.93864
		c5.21423-5.26091,8.97095-11.64581,11.4848-18.67372c1.45569-4.06965-0.19989-9.81427-3.89099-12.19136
		c-0.8855-0.57025-2.89899,0.08997-4.14612,0.69478c-4.7915,2.32378-7.7605,9.58538-6.13312,14.69029
		c0.34802,1.09167,0.95105,2.10202,1.49487,3.27544c-3.57263,0.60864-6.60376-1.62198-7.00867-4.5773
		c-0.15796-1.15343-0.54413-2.28748-0.9259-3.39606c-0.9682-2.81167,0.10608-5.3544,1.40259-7.61532
		c2.15826-3.76379,5.57806-5.66366,9.87787-6.89584c3.63623-1.042,6.86066-0.43633,9.9751,0.59132
		c1.88989,0.62357,3.57227,2.67129,4.75409,4.46944c2.05157,3.12129,2.02081,6.93097,1.30316,10.3362
		c-0.72748,3.45189-2.2309,6.87894-4.04865,9.9267c-2.19531,3.68069-4.78741,7.22807-7.73676,10.33011
		c-3.84814,4.0473-8.23242,7.58247-12.35382,11.37306c-3.32794,3.06082-7.14673,5.3376-11.25409,7.15025
		c-3.5744,1.57744-7.09436,3.1833-11.1394,3.47952c-3.0788,0.22546-6.07123,0.25609-9.16534,0.04341
		c-7.1745-0.49319-12.01144-4.19182-15.55051-10.05798c-2.48953-4.1266-3.13837-8.86295-3.61157-13.46617
		c-0.397-3.86154,0.32855-7.84135,0.58731-11.7668c0.39456-5.98299,1.83826-11.74086,3.60989-17.45047
		c0.80408-2.59115,1.01144-5.36518,1.78284-7.96935c0.95178-3.21324,2.22797-6.32946,3.32028-9.50263
		c0.25833-0.75059,0.34229-1.5612,0.00726-2.53285c-2.30005,2.44584-4.50635,4.98875-6.91858,7.31842
		c-6.03265,5.82617-12.17569,11.53779-18.23679,17.33469c-1.85367,1.7728-3.6293,3.63384-5.33929,5.54514
		c-0.38824,0.43393-0.62338,1.31625-0.47513,1.87093c1.61993,6.06141,1.64783,12.03185-0.10168,18.12527
		c-1.17349,4.08722-2.7775,7.78406-5.81519,10.7948c-5.17172,5.1259-11.49902,5.9225-18.28494,4.78683
		c-2.25143-0.3768-5.16428-3.8074-5.45569-6.11356c-0.23758-1.88013-1.13983-3.47052-0.35941-5.72231
		c1.09302-3.15353,3.2742-5.28937,5.31473-7.48976c2.91315-3.14137,6.34305-5.80713,9.58521-8.63826
		c1.83499-1.60236,1.73337-3.46732,1.11212-5.58518c-1.28152-4.36829-2.47946-8.76292-3.61295-13.17211
		c-0.63007-2.45074-0.98843-4.97153-1.62634-7.41985c-0.18967-0.7281-0.91235-1.31734-1.20456-1.71608
		c-4.86771,7.10411-9.63181,13.76956-14.08453,20.63691c-4.37512,6.74761-9.21451,13.1002-15.01736,18.64904
		c-4.9711,4.75351-10.42404,8.55666-17.94971,7.59059c-3.54572-0.45517-7.522-4.04283-8.75082-7.44392
		c-3.82629-10.59048-2.83209-21.44727-2.32458-32.30679c0.04416-0.94482-0.17508-1.90194-0.31378-3.26373
		c-2.84335,3.61267-5.34476,6.7541-7.80588,9.92677c-3.41156,4.3979-7.83655,6.36404-13.26303,4.9173
		c-1.50406-0.40099-3.29346-1.94296-3.82501-3.37868c-1.81888-4.91262-1.98761-10.1373-1.25198-15.28884
		c0.45023-3.15267,1.53577-6.21216,2.27835-9.32722c0.17865-0.74931,0.12827-1.55322,0.20724-2.67258
		c-0.9184,0.14096-1.71027,0.04066-2.21182,0.37543c-3.29877,2.20177-6.45657,4.62254-9.81497,6.72488
		c-2.966,1.8567-6.12555,3.4063-9.2149,5.06306c-1.22321,0.65599-2.48758,1.23524-3.95618,1.9594
		c-0.53989,2.6307-1.14932,5.59378-1.75586,8.55744c-0.85196,4.16282-1.60498,8.34876-2.57394,12.48412
		c-1.68454,7.18903-3.47049,14.35481-5.27414,21.51518c-1.29593,5.1447-2.6503,10.27553-4.05164,15.39255
		c-1.28201,4.68146-2.57071,9.36473-4.02316,13.99492c-1.65637,5.2804-3.31744,10.57246-5.31183,15.7298
		c-1.76721,4.56981-3.92825,8.99321-6.03772,13.42302c-1.87415,3.93568-3.60837,7.98917-5.95255,11.6385
		c-4.04202,6.29242-8.00577,12.77272-14.68265,16.78091c-4.69257,2.81699-9.55228,5.19736-15.1937,5.47925
		c-3.71066,0.18544-7.48856,1.18388-11.09857,0.72774c-5.66513-0.71585-11.19833-2.10857-16.64319-4.27905
		c-8.43346-3.36185-15.24619-8.5853-21.28893-15.11119c-4.56696-4.93213-8.18954-10.51749-11.23293-16.46765
		c-1.7643-3.44937-3.3145-7.02264-4.72984-10.63084c-0.88107-2.2462-1.36418-4.65311-1.96338-7.00385
		c-0.54276-2.1293-0.96994-4.28789-1.50182-6.42017c-1.80917-7.25293-1.48753-14.4491-0.10205-21.772
		c2.07829-10.98473,7.75201-19.64061,16.61227-26.05537c4.25528-3.08081,9.21071-5.28264,14.04129-7.45506
		c4.48186-2.01559,9.16934-3.62184,13.86368-5.09885c2.76001-0.86842,5.71951-1.08753,8.57196-1.6818
		c3.3876-0.70575,6.73315-1.63696,10.13959-2.22212c4.14706-0.71236,8.33679-1.17969,12.51138-1.72738
		c3.52704-0.46275,7.06808-0.82702,10.5867-1.345c6.04034-0.88922,12.08627-1.76266,18.09442-2.84051
		C322.16245,109.19585,325.8602,108.15907,329.84708,107.22362z M329.20026,110.68144
		c-2.50427,0.37847-5.06705,0.67075-7.58884,1.17004c-3.45847,0.68472-6.85593,1.71874-10.33289,2.26009
		c-6.82715,1.06297-13.69647,1.85159-20.53732,2.83102c-2.97491,0.42592-5.93292,0.99137-8.87997,1.58571
		c-3.77426,0.76116-7.5329,1.60111-11.29248,2.43338c-4.00763,0.8872-8.06516,1.61265-11.99496,2.76875
		c-3.31119,0.97412-6.52747,2.33827-9.68134,3.76112c-3.17072,1.43046-6.3902,2.88006-9.26959,4.79943
		c-4.43727,2.95789-8.36111,6.53081-11.45302,10.9966c-2.57748,3.72276-4.84853,7.54333-5.9077,11.97571
		c-0.584,2.44412-0.71513,5.04227-1.60262,7.35947c-2.63274,6.87389-0.35066,13.60416,0.66113,20.24187
		c0.70312,4.61238,2.90102,9.05344,4.79918,13.41069c1.77252,4.06888,3.76601,8.09384,6.13699,11.8374
		c3.57631,5.64653,8.02193,10.6647,13.12129,14.98975c5.85855,4.96901,12.2935,8.93236,19.87798,10.94098
		c4.77823,1.26544,9.42758,2.20007,14.40271,1.30263c4.92712-0.88878,9.16156-2.9763,12.95337-6.16011
		c5.18439-4.3531,8.85132-9.87018,11.88129-15.7982c2.16016-4.22636,3.96753-8.64102,5.77661-13.03578
		c1.00717-2.44684,1.78641-4.99921,2.50851-7.54927c1.4566-5.14417,2.81848-10.31543,4.18875-15.48366
		c0.48468-1.82819,0.89999-3.67564,1.31149-5.5222c0.85431-3.83383,1.70096-7.66953,2.52048-11.51091
		c0.75586-3.54294,1.49399-7.08997,2.1987-10.64339c0.54874-2.76732,1.09009-5.53825,1.53412-8.32364
		c0.62387-3.9135,1.11801-7.84761,1.73453-11.76237c0.73642-4.67628,1.55817-9.33907,2.31155-14.01278
		C328.82669,114.00236,328.97769,112.44524,329.20026,110.68144z M462.53622,133.29269
		c-3.22183,3.1132-6.26163,5.54463-8.67169,8.49113c-4.21381,5.15167-4.00177,7.32108-0.60849,11.30881
		c1.5062,1.77013,3.6008,1.72531,5.48172,0.40921c4.14249-2.8985,4.70724-7.40297,5.09879-11.76697
		C464.05951,139.24936,463.10068,136.65781,462.53622,133.29269z"/>
	<path d="M214.03242,375.79193c-3.03392,0.2482-4.99629-1.09393-4.90427-3.93378c0.14804-4.56961,0.65306-9.23535,5.02216-12.06058
		c3.06694-1.98325,6.46342-2.52322,10.11475-1.79617c4.35071,0.86627,6.95918,3.6098,8.26881,7.58444
		c0.50124,1.52121,0.57724,3.41946,0.16301,4.96225c-1.41057,5.25363-2.79578,10.53683-6.02652,15.10663
		c-2.82219,3.99194-5.49727,8.09088-8.15054,12.19861c-3.38033,5.23337-8.00522,9.12735-12.99257,12.73904
		c-3.89868,2.82333-8.25833,4.52429-12.88354,4.8526c-3.36667,0.23898-6.89696-0.5567-9.97636-2.42398
		c-3.12968-1.89774-5.98117-4.07788-7.61118-7.46841c-1.11098-2.31088-2.50725-4.59433-3.03831-7.04959
		c-0.88651-4.09875-1.18654-8.32474-1.72591-12.49811c-0.33461-2.58923-0.67163-5.17838-0.96883-7.772
		c-0.06247-0.54501,0.00586-1.11462,0.08018-1.66394c0.30789-2.27579,0.71979-4.54022,0.95013-6.8233
		c0.63806-6.32367,1.06082-12.67261,1.84964-18.97638c0.52258-4.17603,1.34978-8.3363,2.36952-12.42157
		c1.01801-4.07822,2.49092-8.04083,3.68027-12.07892c1.01366-3.44168,1.81755-6.94653,2.87958-10.37219
		c1.10448-3.56256,2.42256-7.05847,3.61639-10.59393c0.53281-1.57788,0.97697-3.18539,1.48439-4.77209
		c1.35408-4.23428,2.73836-8.45901,4.07745-12.69797c1.47102-4.65665,2.82751-9.35107,4.38437-13.97839
		c0.92299-2.74332,2.13509-5.38943,3.2224-8.07718c0.08757-0.21646,0.25697-0.40503,0.3186-0.62601
		c1.40657-5.04242,2.81331-10.08482,4.1973-15.13344c0.56595-2.06448,1.0788-4.14351,1.61584-6.21591
		c-0.35191-0.22122-0.70383-0.44241-1.05574-0.66364c-3.76437,2.7948-7.76514,5.32668-11.23619,8.44766
		c-4.87799,4.38606-9.59004,9.00722-13.9491,13.90511c-4.04666,4.54691-7.64868,9.50769-11.23494,14.44006
		c-2.60837,3.5874-4.96985,7.36652-7.2614,11.16864c-2.15388,3.57376-4.08365,7.28329-6.09015,10.94507
		c-2.15376,3.93051-4.39131,7.8204-6.39362,11.82727c-2.47684,4.95651-4.74648,10.01645-7.11092,15.02921
		c-1.36552,2.89505-2.80324,5.75778-4.09741,8.68417c-1.70706,3.85995-3.36479,7.7442-4.93484,11.66168
		c-1.91716,4.78351-3.67554,9.63113-5.62602,14.40054c-0.27956,0.68362-1.21738,1.48468-1.90841,1.54269
		c-2.29874,0.19312-4.63235,0.19183-6.93571,0.02789c-1.42642-0.10156-2.6814-2.9996-2.36987-4.92026
		c0.31822-1.96204,0.64427-3.92511,0.87491-5.89847c0.47553-4.06873,0.75948-8.16403,1.36122-12.21286
		c0.81986-5.51624,1.80075-11.01102,2.82648-16.49368c1.20261-6.42804,2.46212-12.84698,3.81819-19.24423
		c1.27377-6.00891,2.61228-12.0076,4.10102-17.96613c0.96713-3.87082,2.28519-7.65286,3.38643-11.49176
		c0.60434-2.10675,0.9973-4.27597,1.64044-6.36945c1.22665-3.99265,2.58763-7.94376,3.84393-11.92758
		c0.49402-1.56659,0.85141-3.17599,1.2807-4.76329c0.97577-3.60797,1.88612-7.23563,2.95438-10.81612
		c1.44469-4.84216,3.09851-9.6228,4.49625-14.47774c0.88335-3.06822,1.51515-6.2131,2.16545-9.34319
		c0.73387-3.53232,1.40472-7.07947,2.00249-10.63702c0.13071-0.77794-0.16322-1.62726-0.26157-2.44371
		c-0.73077,0.20532-1.50972,0.30959-2.18483,0.63159c-6.71599,3.20334-11.64612,8.68602-16.8262,13.72784
		c-4.39425,4.27699-8.17471,9.20349-12.06214,13.97665c-3.34252,4.10414-6.54317,8.33241-9.63477,12.62939
		c-2.2407,3.11435-4.2062,6.42719-6.28414,9.65807c-2.52212,3.92154-5.15175,7.78043-7.51414,11.79626
		c-2.11512,3.5954-3.93695,7.36374-5.87634,11.06198c-1.58035,3.01355-3.22701,5.99637-4.68713,9.06757
		c-1.15313,2.42548-2.04344,4.97467-3.09256,7.45111c-2.17135,5.12546-4.48087,10.19553-6.52367,15.37122
		c-1.62763,4.12384-2.95063,8.36826-4.39632,12.56342c-1.21393,3.52267-2.50511,7.02258-3.5856,10.58609
		c-0.99746,3.28961-1.76606,6.64886-2.62497,9.98016c-0.91811,3.56091-1.97917,7.0943-2.69169,10.69629
		c-0.72076,3.64362-1.21212,7.34448-1.58015,11.04257c-0.35007,3.51776-0.69505,4.12256-4.22052,4.41995
		c-1.57163,0.13257-3.21597,0.03665-4.74897-0.30603c-0.6483-0.14493-1.48652-1.14273-1.57523-1.83755
		c-1.83331-14.35944-1.50837-28.79919-1.28988-43.21844c0.09931-6.55341,0.69215-13.11661,1.39932-19.63864
		c0.69032-6.36661,1.73037-12.69989,2.77324-19.02203c0.6609-4.0065,1.50114-7.99161,2.45531-11.93936
		c1.02805-4.25339,2.28295-8.45197,3.1169-13.08942c-1.90419,1.49835-3.80183,3.0051-5.71381,4.49344
		c-5.9141,4.6037-11.52234,9.69797-17.84307,13.65283c-5.74781,3.59631-12.12522,6.65259-19.35759,5.57895
		c-4.58222-0.68027-9.12084-1.67752-11.73044-6.2626c-1.88407-3.31039-2.23377-6.90665-1.94754-10.53766
		c0.3648-4.62769,0.66402-9.32578,1.7474-13.81096c0.86968-3.60036,2.78241-6.968,4.39093-10.36377
		c1.03706-2.18942,2.20073-4.35669,3.59952-6.32664c1.50338-2.11725,4.86867-3.08774,6.8906-2.3511
		c2.24265,0.81703,2.71477,2.30591,1.83391,4.51958c-1.3638,3.42735-2.62548,6.90622-3.71069,10.43086
		c-1.33377,4.33195-2.85791,8.67114-3.52429,13.12329c-0.60734,4.05765-2.25774,8.01761-0.90916,12.41342
		c1.46021,4.75967,5.36783,7.14365,10.00685,5.05316c3.28442-1.48004,6.54328-3.08621,9.6096-4.96835
		c10.93401-6.7113,20.29647-15.39062,29.56752-24.14955c0.92576-0.87463,1.22285-2.46144,1.69696-3.75964
		c2.73547-7.49019,5.13692-15.11977,8.24152-22.45235c2.59373-6.12601,5.84156-11.99611,9.09425-17.8149
		c2.30202-4.11818,4.738-8.26529,7.77361-11.8394c2.85303-3.35921,6.32822-6.35297,10.01146-8.77477
		c1.81982-1.19653,4.7195-0.82211,7.14226-0.99353c0.91301-0.06458,2.00909,0.10223,2.75523,0.57986
		c1.15607,0.74005,2.85573,1.75768,2.9626,2.79764c0.31389,3.05424,0.45055,6.29893-0.27253,9.24063
		c-0.77283,3.14401-2.31644,6.20735-4.04549,8.9805c-2.27946,3.65599-4.94022,7.0986-7.66728,10.44534
		c-3.88577,4.76868-7.73748,9.60876-12.06432,13.9604c-3.36157,3.3808-3.7913,7.75195-5.26382,11.77644
		c-1.42319,3.88959-2.50806,7.90414-3.70525,11.87474c-0.52252,1.733-0.99612,3.48331-1.41927,5.24319
		c-1.00632,4.1853-1.98705,8.37704-2.94469,12.57379c-0.91646,4.01624-1.89275,8.02271-2.66141,12.06793
		c-1.41612,7.45276-2.68031,14.93436-4.05424,22.39536c-0.27211,1.47766-0.8693,2.89948-1.09137,4.38083
		c-0.12101,0.80716,0.231,1.68527,0.88742,2.48889c1.45934-3.84103,2.78475-7.73993,4.41261-11.50812
		c1.94801-4.50937,4.1639-8.90268,6.24608-13.35452c1.86788-3.99359,3.58692-8.06253,5.59946-11.98126
		c2.26914-4.4183,4.64307-8.79797,7.24184-13.02829c3.72879-6.06979,7.4761-12.1519,11.63108-17.92992
		c4.74216-6.59459,9.96157-12.84482,14.93442-19.27498c4.66912-6.03735,9.90704-11.56656,15.78601-16.38329
		c4.36261-3.5744,8.45477-7.58678,13.82986-9.84358c5.06274-2.12566,11.73105-0.52977,14.18752,3.87556
		c0.65851,1.18091,0.97185,2.70871,0.96928,4.07637c-0.00964,5.19203,0.04076,10.40669-0.42697,15.56801
		c-0.36336,4.00981-1.36763,7.97462-2.26082,11.92006c-1.10513,4.88165-2.39337,9.72176-3.59554,14.58153
		c-0.60173,2.43246-1.12619,4.88591-1.79539,7.29939c-1.0985,3.96182-2.32704,7.8876-3.42152,11.85046
		c-0.66545,2.40942-1.133,4.87302-1.77663,7.28903c-1.10536,4.14914-2.27632,8.28082-3.42641,12.41797
		c-0.18985,0.68292-0.44054,1.34952-0.61728,2.03543c-0.85977,3.33694-1.72801,6.67203-2.5452,10.01947
		c-0.5374,2.20151-0.98196,4.42542-1.48941,6.63443c-0.35246,1.53439-0.83429,3.04559-1.08142,4.5954
		c-0.1687,1.05801-0.03229,2.16467,0.38835,3.20932c2.44002-4.53207,4.80658-9.10577,7.34314-13.58316
		c2.05646-3.62988,4.31436-7.14575,6.48788-10.70917c4.12398-6.76108,7.69521-13.95206,12.52231-20.16742
		c5.67821-7.31122,12.31319-13.90594,18.79863-20.55246c3.29497-3.37682,7.16437-6.19482,10.78886-9.24785
		c3.28429-2.76648,7.13148-4.42688,11.27814-5.29047c3.33417-0.69434,6.58704,0.1675,9.06348,2.36543
		c2.50235,2.22102,2.33698,5.6086,2.33322,8.70238c-0.00169,1.40546-0.49371,2.80374-0.67134,4.21681
		c-0.55449,4.41107-0.70724,8.90823-1.67865,13.22275c-1.37587,6.11093-3.3559,12.08517-5.05339,18.12466
		c-1.37537,4.89346-2.58974,9.83612-4.1053,14.68515c-1.52705,4.88562-3.39478,9.66367-5.00665,14.5242
		c-1.41823,4.27661-2.68553,8.60324-4.02623,12.90567c-1.30963,4.20273-2.69557,8.38315-3.92052,12.61032
		c-0.96796,3.34021-1.79359,6.72446-2.59047,10.11078c-1.02194,4.34271-1.9601,8.70529-2.91861,13.06277
		c-0.82266,3.73987-1.62323,7.48462-2.43333,11.22723c-0.03366,0.15552-0.07564,0.31018-0.09583,0.46756
		c-1.13481,8.84836-2.50928,17.71997-1.29169,26.63907c0.62262,4.56079,3.23967,8.34564,7.2789,10.61688
		c1.39709,0.78555,3.94121,0.83984,5.33379,0.07919c4.16129-2.27295,8.34285-4.73322,11.90593-7.82419
		c5.31494-4.61069,9.53247-10.2739,12.59447-16.66641c2.21924-4.63303,4.71213-9.22937,6.13496-14.11801
		c1.03899-3.56979,1.19525-7.72217-2.3226-10.70956c-1.4659-1.2449-2.77614-1.39224-3.96893,0.25107
		c-1.67294,2.30487-3.64403,4.48611-4.81641,7.0296C213.90903,371.2872,214.23187,373.56851,214.03242,375.79193z
		 M87.8373,221.50162c0.31093,0.15076,0.62187,0.30153,0.93279,0.45232c1.96529-2.53046,3.9511-5.04533,5.89131-7.59486
		c3.2698-4.2966,6.06364-8.90385,7.55237-14.10097c0.55332-1.93159,1.30925-4.23251-0.16669-6.69763
		C95.2711,202.19409,91.64713,211.89351,87.8373,221.50162z"/>
	<path d="M510.63385,234.05994c0.78644,4.17503-0.6683,7.50797-3.85852,9.67529c-1.66721,1.13268-3.93726,2.09341-6.27966,1.31001
		c-1.65967-0.55508-3.67957-0.68584-4.91202-1.73918c-3.23279-2.76288-1.66208-7.81949,2.11264-9.69936
		c2.85861-1.42365,5.58774-1.37703,8.42673-1.1223C507.61829,232.61862,509.04819,233.4805,510.63385,234.05994z"/>
</g>
</svg>
