<?xml version="1.0" encoding="utf-8"?>
<!-- Generator: Adobe Illustrator 26.2.1, SVG Export Plug-In . SVG Version: 6.00 Build 0)  -->
<svg version="1.1" xmlns="http://www.w3.org/2000/svg" xmlns:xlink="http://www.w3.org/1999/xlink" x="0px" y="0px"
	 viewBox="0 0 85.09091 39.27273" style="enable-background:new 0 0 85.09091 39.27273;" xml:space="preserve">
<g id="Background_xA0_Image_00000144319470547331026070000003884612304603710637_">
</g>
<g id="Layer_1_xA0_Image_00000169516298359836967620000002847148461892440203_">
	<g>
		<path d="M77.04552,22.29314c-0.46076,0.37878-0.90591,0.77881-1.38558,1.13187c-0.96852,0.71289-2.53681,0.47483-2.59799-1.24829
			c-0.00336-0.09483-0.03091-0.1888-0.06857-0.40687c-0.6262,0.6719-1.15513,1.31135-1.75905,1.86957
			c-0.78783,0.72821-1.62666,1.40254-2.46307,2.07578c-0.1946,0.15664-0.46033,0.24081-0.70641,0.31472
			c-1.15157,0.34587-1.84454-0.14802-1.90172-1.33752c-0.05733-1.19284,0.44334-2.21714,0.97919-3.2279
			c0.44881-0.84658,0.96281-1.66207,1.36041-2.5314c0.48277-1.05551,0.07612-1.7154-1.13832-1.94597
			c-0.20584,1.83484-1.01952,3.39809-2.49989,4.45633c-1.11819,0.79933-1.9635,1.73094-2.61297,2.9213
			c-0.40228,0.7373-0.99834,1.3355-1.82341,1.66989c-1.27811,0.518-2.25283,0.10139-2.70007-1.19748
			c-0.03641-0.10572-0.07735-0.20987-0.13953-0.37783c-0.55878,0.72822-1.06067,1.41272-1.59586,2.07009
			c-0.42449,0.5214-0.99845,0.78825-1.67408,0.80672c-0.92395,0.02527-1.46942-0.38885-1.68045-1.29145
			c-0.39459-1.68767-0.30466-3.37557,0.04483-5.05635c0.1431-0.68821,0.32622-1.36809,0.46204-1.93114
			c-1.78604,1.49549-3.6128,3.02509-5.55451,4.65092c0.08239,0.23592,0.22536,0.66249,0.37986,1.08484
			c0.73885,2.01963,1.15194,4.07827,0.72549,6.23153c-0.44418,2.24275-1.58838,3.91169-3.94915,4.37073
			c-3.84045,0.74675-6.48275-2.28485-5.93792-5.24005c0.24895-1.35027,1.08745-2.38668,2.1412-3.16046
			c1.39505-1.0244,2.90449-1.89294,4.3661-2.82636c0.15023-0.09594,0.30958-0.17758,0.55981-0.31998
			c-0.31864-0.6809-0.61195-1.36917-0.95583-2.03114c-1.10452-2.12621-2.28508-4.21495-3.32746-6.37083
			c-1.02428-2.11844-1.86011-4.34635-1.53564-6.75116c0.40249-2.98307,1.99936-5.22947,4.79763-6.40065
			c2.44829-1.02471,4.84125-0.62652,6.9878,0.92301c1.78835,1.29095,2.49915,3.64744,1.81517,5.66074
			C53.48039,9.3999,53.21412,9.73037,52.582,9.48027c-0.08796-0.83665-0.11955-1.69414-0.27835-2.52736
			c-0.29634-1.55483-0.92251-2.94272-2.35661-3.79763c-2.02443-1.20683-4.21726-0.82962-5.91917,0.97305
			c-2.39116,2.53273-2.77243,5.43686-1.74396,8.6769c0.849,2.67465,2.36845,5.00724,3.61654,7.47902
			c0.44828,0.88779,0.89358,1.7771,1.37231,2.72953c2.77217-1.72349,5.06337-3.86801,6.85529-6.52906
			c-0.03451-0.04348-0.06903-0.08695-0.10354-0.13043c-0.72225,0.24609-1.43032,0.55829-2.17124,0.71728
			c-0.59018,0.12665-1.22653,0.12869-1.83103,0.06964c-0.50111-0.04895-0.87402-0.38887-0.97595-0.9275
			c-0.12175-0.64345-0.01913-1.26368,0.43817-1.73212c0.15437-0.15813,0.52848-0.10149,0.91591-0.16026
			c-0.16892,0.52267-0.31997,0.88774-0.40324,1.26768c-0.21387,0.97578,0.24242,1.52373,1.18298,1.27262
			c1.03251-0.27566,2.02452-0.71557,3.01293-1.13414c0.20364-0.08624,0.3421-0.37886,0.46096-0.60275
			c0.27068-0.50987,0.4982-1.04258,0.76592-1.55413c0.37868-0.72356,0.63913-0.8129,1.53552-0.51801
			c-0.03123,0.34304-0.06431,0.7063-0.10526,1.15598c0.62815-0.36843,1.19681-0.72694,1.78778-1.0438
			c1.60906-0.86272,3.2566-1.636,5.12027-1.73026c0.49052-0.02481,1.00487,0.02162,1.47836,0.14777
			c0.85937,0.22896,1.27004,0.99216,0.95685,1.82042c-0.1637,0.43295-0.47897,0.83103-0.80385,1.16994
			c-0.14018,0.14624-0.47803,0.10278-0.72607,0.1455c-0.02742-0.05561-0.05485-0.11121-0.08227-0.16682
			c0.11549-0.17409,0.23283-0.34701,0.34605-0.52257c0.15079-0.23382,0.33163-0.45527,0.44099-0.70746
			c0.29613-0.6829-0.0181-1.46327-0.74106-1.51991c-0.8147-0.06383-1.6776,0.01756-2.46952,0.22602
			c-1.99307,0.52465-3.71676,1.63626-5.42643,2.74444c-0.22219,0.14402-0.35495,0.4665-0.46814,0.73232
			c-1.05404,2.47527-1.82668,5.03366-2.15199,7.7104c-0.11074,0.91121-0.14415,1.83397-0.16682,2.75259
			c-0.00777,0.31518,0.12486,0.63384,0.18941,0.93266c1.14605-0.09637,3.39767-2.84476,3.60143-4.26565
			c-1.26469-1.32708-1.22433-2.63105,0.12326-3.98225c1.37675-1.38045,3.57975-1.56283,4.8939-0.41133
			c0.88476,0.77526,0.95533,1.79262,0.86614,2.85934c-0.01446,0.17299-0.05273,0.34398-0.10581,0.67853
			c0.3084-0.21005,0.50632-0.3237,0.68021-0.46664c1.3586-1.11683,2.34359-2.45682,2.46095-4.28229
			c0.01646-0.2561-0.10017-0.52195-0.16247-0.78153c-0.04628-0.19288-0.10436-0.38292-0.17932-0.65436
			c0.36357,0,0.60982,0,0.92015,0c0.03618,0.72546,0.62285,0.88669,1.1531,1.11077c0.22089,0.09335,0.44559,0.17849,0.66263,0.28004
			c0.92379,0.43222,1.33993,1.16337,0.96912,2.09614c-0.46229,1.16292-1.09038,2.26011-1.65183,3.3832
			c-0.29404,0.58818-0.64059,1.15418-0.88499,1.76179c-0.18904,0.46998-0.32919,0.99146,0.08772,1.60659
			c0.50931-0.26777,1.09865-0.43531,1.49089-0.80964c1.35401-1.29216,2.70249-2.60189,3.92275-4.01741
			c0.5685-0.65946,0.81071-1.59255,1.25247-2.37231c0.27386-0.48338,0.53644-0.5138,1.1451-0.27478
			c-0.02934,1.65874-1.23357,3.16061-0.75363,5.11591c0.63611-0.46357,1.16965-0.82144,1.66841-1.22263
			c0.91207-0.73365,1.40172-1.7373,1.84027-2.80388c0.37663-0.91597,0.88844-1.78355,1.40836-2.63082
			c0.37031-0.60345,0.78867-0.66541,1.53436-0.32273c-0.16432,0.4651-0.31048,0.95196-0.50533,1.41845
			c-1.21515,2.90925-2.41474,5.82547-3.67213,8.71646c-0.98695,2.26921-2.22211,4.38858-4.21861,6.11829
			c1.63558,0.75637,3.18959,1.43595,4.93156,1.57212c1.47601,0.11538,2.78355-0.29298,3.85545-1.30559
			c0.39234-0.37064,0.73458-0.85355,0.93756-1.35142c0.28307-0.69432-0.01101-1.30558-0.64275-1.68826
			c-0.44537-0.26978-0.99229-0.16628-1.51711,0.33508c-0.21262,0.20311-0.40854,0.45102-0.53023,0.71614
			c-0.21764,0.47414-0.52811,0.53673-1.00095,0.33193c0.05951-0.91815,0.62-1.43639,1.37551-1.78827
			c0.26782-0.12474,0.56863-0.19919,0.86237-0.24377c0.96294-0.14613,2.08618,0.36446,2.43289,1.08184
			c0.31696,0.65579,0.05487,1.7281-0.62286,2.42253c-1.60271,1.6422-3.59272,2.26429-5.8024,1.87317
			c-1.6379-0.28993-3.22621-0.86035-4.87119-1.31538c-1.07178,0.54405-2.2168,1.25882-3.45474,1.72829
			c-3.52469,1.33669-7.15692,2.01547-10.93405,1.31788c-1.25742-0.23223-2.42723-0.68057-3.28815-1.70126
			c-0.97312-1.15369-0.89775-2.45912,0.14385-3.54904c0.9192-0.96186,2.10569-1.36034,3.33285-1.65607
			c3.49003-0.84103,6.871-0.40255,10.14474,0.98841c1.17445,0.49901,2.31784,1.07125,3.51672,1.6293
			c0.92924-0.73493,1.69413-1.65303,2.20883-2.70005c1.16051-2.36075,2.20518-4.77851,3.29615-7.17159
			c-0.00813-0.00528-0.0154-0.01205-0.02268-0.01882C77.03665,22.26722,77.04108,22.28018,77.04552,22.29314z M70.97767,32.65831
			c-0.7752-0.38987-1.51896-0.77301-2.27047-1.14025c-2.84945-1.39246-5.80993-2.23778-9.02457-1.80913
			c-1.48043,0.1974-2.91533,0.51724-4.05636,1.58125c-0.95067,0.88649-1.119,1.88953-0.4461,2.8358
			c0.2276,0.32006,0.52073,0.61024,0.83297,0.85015c0.9947,0.76429,2.18447,0.94599,3.38762,1.02859
			c2.21766,0.15226,4.38398-0.1962,6.50722-0.79774C67.74006,34.68793,69.48835,33.97197,70.97767,32.65831z M46.12786,24.44253
			c-0.113,0.01003-0.182-0.00319-0.22884,0.02311c-1.72347,0.96747-3.4767,1.89721-4.85714,3.35638
			c-1.60926,1.70105-1.82743,3.40198-0.6721,5.20978c0.77383,1.21086,1.87877,1.94865,3.3327,1.88717
			c1.41299-0.05976,2.36415-0.92269,2.90417-2.18388C47.82268,29.89511,47.18792,27.15478,46.12786,24.44253z M59.36956,22.57524
			c0.70189,0.3328,2.37664,0.278,2.89042-0.09278c0.11758-0.08486,0.23696-0.25287,0.24548-0.38948
			c0.05529-0.88631,0.22081-1.79761,0.07998-2.65635c-0.18259-1.11338-1.49804-1.78963-2.50312-1.42423
			c-1.23058,0.44738-2.03267,1.32541-2.33879,2.59996c-0.07848,0.32673,0.03524,0.69968,0.07112,1.19603
			c0.81731-0.89064,0.99937-0.94454,1.7468-0.57794C59.50122,21.65237,59.4375,22.09903,59.36956,22.57524z M62.09917,23.15351
			c-1.01987,0-1.92562,0-2.81746,0c-0.47417,1.1913-0.34224,2.18127,0.36318,2.62437
			C60.89623,25.32632,61.47773,24.24886,62.09917,23.15351z"/>
		<path d="M16.8486,25.18387c1.08527-0.27295,2.01805-0.78888,2.91908-1.37147c0.70426-0.45537,1.39674-0.92905,2.10343-1.38052
			c0.51685-0.33019,0.83996-0.32983,1.45794-0.01221c-0.52219,2.29914-1.28235,4.57192-1.52134,6.9477
			c0.05482,0.03036,0.10963,0.06073,0.16445,0.09109c0.3488-0.43663,0.73278-0.84997,1.03983-1.31425
			c0.92654-1.40094,1.816-2.82174,2.27429-4.46763c0.19104-0.6861,0.51329-0.78664,1.33771-0.44571
			c-0.02985,0.4346-0.01652,0.91335-0.10249,1.37351c-0.33645,1.80091-0.47202,3.60592-0.22503,5.42909
			c0.00268,0.01979,0.00135,0.0402,0.00477,0.05981c0.112,0.64262,0.24943,1.3254,0.92274,1.5754
			c0.66116,0.24549,1.12972-0.28576,1.55831-0.68223c1.26587-1.17099,2.03812-2.67352,2.57339-4.27372
			c0.35155-1.05098,0.59212-2.16464,0.68649-3.26702c0.06025-0.70381-0.17577-1.45836-0.40141-2.15017
			c-0.10599-0.32495-0.49636-0.56009-0.76639-0.8273c-0.16716-0.16541-0.35037-0.31458-0.56224-0.50293
			c0.50057-0.40975,1.00184-0.41373,1.31438-0.12864c0.5892,0.53747,1.31383,0.64053,2.00922,0.8602
			c2.62336,0.82872,3.02325,2.31385,2.22008,4.81078c-0.54369,1.69024-1.22903,3.33441-1.80711,5.01431
			c-0.17918,0.52072-0.26783,1.08766-0.30299,1.6395c-0.05519,0.86605,0.22203,1.13453,1.08481,1.2107
			c0.07236,0.00639,0.14161,0.04807,0.22417,0.07759c-0.60425,0.62623-2.03828,0.3177-2.30032-0.57979
			c-0.21557-0.73835-0.32045-1.60348-0.15374-2.33972c0.3601-1.59032,0.92658-3.13382,1.40762-4.69678
			c0.21125-0.68637,0.48713-1.36112,0.61636-2.06277c0.2944-1.59844-0.25648-2.34104-1.88945-2.66786
			c-0.01527,0.05047-0.05573,0.10952-0.04319,0.1534c0.72866,2.54991-0.09077,4.85525-1.14635,7.11103
			c-0.54439,1.16338-1.23156,2.23491-2.25382,3.06011c-1.80295,1.4554-3.79771,0.82318-4.38625-1.41854
			c-0.13599-0.51798-0.22254-1.0549-0.26966-1.58861c-0.04523-0.51221-0.00977-1.03156-0.14656-1.59053
			c-0.34784,0.56262-0.68833,1.12996-1.04604,1.68622c-0.24828,0.38611-0.51654,0.7596-0.78257,1.13397
			c-0.33184,0.46699-0.77221,0.68089-1.34953,0.55292c-0.5874-0.1302-0.63037-0.64614-0.68387-1.08131
			c-0.15853-1.28926,0.05915-2.54867,0.42138-3.78628c0.16667-0.56944,0.33412-1.13864,0.54692-1.86366
			c-0.55883,0.2992-0.98821,0.5584-1.44127,0.76584c-1.10265,0.50487-2.22284,0.97171-3.32071,1.48645
			c-0.26292,0.12327-0.54068,0.32953-0.68516,0.57281c-1.10243,1.85632-2.13198,3.77915-3.88507,5.11844
			c-0.66545,0.50838-1.46544,0.94682-2.27071,1.14194c-1.38604,0.33584-2.57086-0.54472-3.17408-2.13427
			c-0.58107-1.53119-0.67211-3.13291-0.51143-4.72992c0.09033-0.89779-0.08753-1.41747-0.91683-1.91007
			c-1.86166-1.10579-3.13509-2.75516-3.79508-4.84063c-0.57173-1.80658-0.46446-3.63416-0.11087-5.45969
			c0.4793-2.47458,1.3773-4.76344,3.13002-6.63053c2.14349-2.28335,4.76757-3.53268,7.93134-3.48572
			c3.21195,0.04767,5.45299,1.62757,6.9202,4.44403c1.61571,3.10152,1.43579,6.27881,0.51574,9.50747
			c-0.72048,2.52832-1.728,4.93853-2.96794,7.25398c-0.06579,0.12286-0.11602,0.25505-0.1624,0.38681
			C16.8341,25.00767,16.8486,25.068,16.8486,25.18387z M7.68177,24.11198c0.09745,0.11174,0.11769,0.15399,0.15065,0.17003
			c2.36052,1.14823,4.85567,1.54551,7.45631,1.30356c0.17903-0.01665,0.41102-0.1913,0.49863-0.35618
			c1.66329-3.13016,3.13982-6.33749,3.789-9.85565c0.51448-2.78822,0.21343-5.458-1.28749-7.92384
			c-1.10169-1.80994-2.52913-3.22255-4.71992-3.55235c-3.24483-0.48847-5.8439,0.81517-7.92249,3.17839
			c-1.98159,2.25295-2.69718,5.03237-2.87532,7.96898c-0.13794,2.27386,0.26226,4.42018,1.58084,6.33219
			c0.55374,0.80296,1.20907,1.49953,2.11867,2.03472c0.03946-0.23407,0.06123-0.38662,0.09124-0.53754
			c0.30354-1.5267,0.57917-3.05985,0.92696-4.57643c0.14434-0.62942,0.44314-0.69147,1.11482-0.35073
			C8.29461,20.0138,7.98294,22.09801,7.68177,24.11198z M15.34085,26.21956c-2.71813,0.06647-5.21347-0.36248-7.74179-1.19631
			c-0.05292,1.73976-0.21623,3.39583,0.25134,5.01502c0.15129,0.5239,0.4032,1.04653,0.72241,1.48763
			c0.50128,0.69268,1.01167,0.82426,1.70353,0.34348c0.89079-0.61902,1.79299-1.2831,2.49616-2.09592
			C13.72507,28.67236,14.49346,27.41174,15.34085,26.21956z"/>
	</g>
</g>
</svg>
