<?xml version="1.0" encoding="utf-8"?>
<!-- Generator: Adobe Illustrator 26.2.1, SVG Export Plug-In . SVG Version: 6.00 Build 0)  -->
<svg version="1.1" id="Photos_xA0_Image_00000001647860043535667860000004198405163912563613_"
	 xmlns="http://www.w3.org/2000/svg" xmlns:xlink="http://www.w3.org/1999/xlink" x="0px" y="0px" viewBox="0 0 85.09091 39.27273"
	 style="enable-background:new 0 0 85.09091 39.27273;" xml:space="preserve">
<g>
	<path d="M71.33131,28.66587c-0.26988,1.24882-0.34753,2.48228-0.80573,3.55228c-1.05873,2.47237-2.80495,4.30453-5.56167,4.87117
		c-1.25628,0.25823-2.51322,0.16473-3.71183-0.3616c-1.20997-0.53131-2.12002-1.34231-2.25112-2.7282
		c-0.13113-1.38631,0.65028-2.35829,1.68538-3.13163c1.55418-1.16114,3.41034-1.49147,5.25927-1.81358
		c1.09049-0.18998,2.18661-0.34759,3.33511-0.5284c-0.21904-3.04678-0.43521-6.05375-0.65508-9.11195
		c-0.16739,0.13582-0.36248,0.28895-0.55199,0.4487c-1.90594,1.60667-3.905,3.06474-6.23711,4.01074
		c-0.22031,0.08937-0.38918,0.32332-0.56266,0.50828c-1.06968,1.14042-2.12049,2.29904-3.21053,3.41946
		c-0.23087,0.2373-0.58239,0.38819-0.90568,0.4983c-1.15602,0.39375-1.86035-0.05226-2.00906-1.25222
		c-0.04532-0.36574-0.06886-0.73753-0.06076-1.10563c0.008-0.3637,0.0686-0.72624-0.02076-1.14924
		c-0.28582,0.39164-0.55197,0.79965-0.8609,1.17206c-1.26379,1.52351-2.49699,3.07652-3.83669,4.53066
		c-0.46137,0.50078-1.16359,0.84928-1.82119,1.0817c-0.94733,0.33481-1.66977-0.08953-1.99588-1.04258
		c-0.5551-1.62227-0.42039-3.28146-0.07106-4.90475c0.39312-1.82674,0.92439-3.62365,1.40617-5.47432
		c-0.55359,0.48912-1.07191,1.02309-1.66548,1.45278c-0.79044,0.5722-1.64914,1.04891-2.45786,1.59718
		c-0.27052,0.1834-0.5153,0.43345-0.70666,0.69998c-0.54422,0.75802-1.05075,1.54309-1.58239,2.31038
		c-0.09752,0.14076-0.23695,0.25527-0.36777,0.36957c-1.47788,1.2912-3.00099,0.77548-3.53823-1.21494
		c-0.57972,0.82455-1.10852,1.67378-1.73747,2.44061c-0.50542,0.61621-1.06856,1.22486-1.71827,1.67412
		c-1.34451,0.92969-2.87448,0.44716-3.47767-1.07471c-0.31033-0.78298-0.45508-1.63164-0.67712-2.44995
		c-0.09003-0.33179-0.18663-0.6618-0.29421-1.042c-0.19507,0.09486-0.34003,0.13869-0.45334,0.22446
		c-1.71627,1.29904-3.12648,2.87218-3.89387,4.89811c-0.35638,0.94086-0.4225,1.99205-0.61947,2.99337
		c-0.02945,0.1497-0.00853,0.33765-0.09256,0.44191c-0.14141,0.17547-0.3483,0.29802-0.52764,0.44283
		c-0.13755-0.17694-0.39976-0.35823-0.39377-0.53015c0.07878-2.26096,0.1612-4.52297,0.31758-6.77951
		c0.07325-1.057,0.30753-2.10281,0.45787-3.08231c-0.47822-0.16633-0.93233-0.2715-1.32354-0.48977
		c-0.13188-0.07358-0.17517-0.4505-0.12749-0.65857c0.04028-0.17581,0.27058-0.30794,0.41679-0.4594
		c0.05494,0.04296,0.10989,0.08592,0.16483,0.12887c0.00895,0.1261-0.01958,0.27217,0.03459,0.37417
		c0.11573,0.21789,0.27429,0.41294,0.41531,0.61735c0.22313-0.19642,0.57783-0.3548,0.64728-0.59568
		c0.35502-1.23129,0.58146-2.5006,0.95356-3.72595c1.29589-4.26743,3.09485-8.28441,6.1246-11.63285
		c0.90769-1.00317,1.92326-1.90513,3.35676-2.11497c1.61298-0.23611,2.67923,0.7189,2.44817,2.3404
		c-0.11757,0.82509-0.41719,1.64971-0.77063,2.41117c-1.6389,3.53092-4.12084,6.4504-6.81855,9.19725
		c-1.03652,1.0554-2.14414,2.04058-3.21206,3.06539c-0.13518,0.12972-0.29462,0.293-0.32654,0.46268
		c-0.33829,1.79777-0.65362,3.59987-0.9715,5.40144c-0.01031,0.05841,0.01963,0.12394,0.04812,0.28257
		c0.1573-0.19606,0.26235-0.3458,0.38601-0.47811c0.88969-0.95195,1.72983-1.95909,2.69021-2.83359
		c0.98726-0.89897,2.13788-0.53114,2.52896,0.74281c0.21656,0.70547,0.33486,1.44113,0.49933,2.16275
		c0.0436,0.19129,0.08283,0.38469,0.14341,0.57082c0.40722,1.25129,1.00447,1.44756,2.07364,0.68648
		c1.26814-0.9027,3.3551-3.73006,3.81653-5.20664c-0.17914-0.08453-0.36705-0.17373-0.5554-0.26197
		c-1.67041-0.78259-2.41266-2.26714-1.91182-4.03059c0.55074-1.93916,1.74821-3.34724,3.68805-4.02047
		c2.84552-0.98754,5.43413,0.93258,5.41024,4.06115c-0.00716,0.9384-0.26885,1.87485-0.44792,3.03177
		c0.93324-0.72083,1.77311-1.34634,2.58479-2.00658c0.38698-0.31478,0.71758-0.69854,1.07864-1.04591
		c0.74575-0.71747,1.29039-1.53739,1.68428-2.52066c0.62196-1.55264,1.41059-3.03833,2.12939-4.55201
		c0.09152-0.19272,0.18732-0.38341,0.31657-0.64742c-0.6034,0-1.13256-0.00703-1.66147,0.00144
		c-1.14729,0.01838-2.26274-0.13242-3.29408-0.66537c-0.66664-0.34448-0.94038-0.91168-0.69749-1.49923
		c0.07744-0.18733,0.34239-0.35575,0.55058-0.40219c0.08808-0.01964,0.36141,0.29805,0.36106,0.46202
		c-0.00153,0.72911,0.44225,1.06216,1.03216,1.2657c1.27248,0.43904,2.57266,0.40876,3.86789,0.12949
		c0.19265-0.04154,0.3739-0.267,0.50312-0.44834c0.39145-0.54929,0.73362-1.13477,1.14047-1.67158
		c0.1426-0.18817,0.40263-0.34766,0.63453-0.395c0.51471-0.10508,0.72308,0.17507,0.54185,0.67595
		c-0.1233,0.34075-0.27222,0.67219-0.48189,1.18411c0.45271-0.18182,0.75567-0.27086,1.02731-0.41793
		c1.6841-0.9118,3.35493-1.84829,5.04241-2.75368c1.52964-0.82071,3.14445-1.4291,4.88941-1.51478
		c0.76422-0.03752,1.56783,0.06296,2.30353,0.27494c0.9609,0.27688,1.35521,1.43934,0.84312,2.2915
		c-0.09707,0.16152-0.43105,0.24305-0.65337,0.2388c-0.1054-0.00202-0.31849-0.31712-0.2905-0.44963
		c0.34661-1.6409-0.73373-2.05297-2.11382-1.9403c-1.96072,0.16008-3.66994,1.00628-5.36361,1.92957
		c-1.90741,1.03982-3.85253,2.0101-5.77207,3.02798c-0.19232,0.10198-0.36923,0.29854-0.47235,0.49404
		c-1.61682,3.06534-3.10759,6.19033-4.05626,9.53598c-0.59877,2.11166-1.13812,4.24372-1.60024,6.38907
		c-0.18908,0.87778-0.13339,1.815-0.12696,2.72475c0.00212,0.29887,0.19975,0.59636,0.3566,1.02841
		c2.97009-2.03699,4.86578-4.84342,6.79174-7.61617c-2.3639-2.45832-0.84515-5.88493,0.9484-7.61458
		c1.00365-0.96789,2.14606-1.707,3.55072-1.95677c2.66603-0.47406,4.60595,1.17962,4.56717,3.88964
		c-0.02294,1.60317-0.68902,2.99709-1.40682,4.37515c-0.0699,0.13419-0.14249,0.267-0.2108,0.40198
		c-0.00687,0.01357,0.00731,0.03781,0.04013,0.18148c0.85583-0.51696,1.72233-0.95658,2.4936-1.52565
		c1.18954-0.87768,2.3422-1.81194,3.44892-2.79195c0.33965-0.30077,0.56138-0.80563,0.69198-1.25896
		c0.33986-1.17962,0.7195-2.33081,1.51499-3.29099c0.49535-0.5979,1.06316-1.11045,1.89032-1.17109
		c0.84415-0.0619,1.07691,0.2572,0.67866,1.00182c-0.3272,0.61177-0.66303,1.25757-1.143,1.74088
		c-1.08187,1.08941-1.4505,2.43066-1.42586,3.86456c0.03737,2.17517,0.20763,4.34835,0.33663,6.52147
		c0.0423,0.71258,0.13184,1.42235,0.20547,2.19292c1.88085-0.29734,3.65041-0.79361,5.35612-1.51898
		c1.49113-0.63412,2.93711-1.35295,4.00623-2.6211c0.34444-0.40856,0.66665-0.88352,0.82564-1.38342
		c0.09489-0.29836-0.14697-0.70417-0.23743-1.06168c-0.28085,0.13377-0.56165,0.26764-0.84256,0.40128
		c-0.21425,0.10193-0.42863,0.20357-0.64295,0.30533c0.08141-0.29141,0.07551-0.66942,0.26129-0.85731
		c0.47607-0.48147,1.56898-0.50619,2.00964-0.12893c0.45014,0.38537,0.54905,1.20851,0.15874,1.8756
		c-0.77068,1.31718-1.91431,2.23927-3.24002,2.95656c-2.18565,1.18259-4.52518,1.90972-6.95489,2.37378
		C71.60364,28.60395,71.39304,28.65273,71.33131,28.66587z M26.66834,21.02209c0.06041,0.04602,0.12082,0.09205,0.18123,0.13807
		c0.11411-0.08811,0.23989-0.16459,0.34056-0.26608c1.33294-1.34386,2.70569-2.65145,3.98275-4.04681
		c2.04894-2.23876,3.89223-4.64153,5.08376-7.46235c0.33017-0.78163,0.56235-1.66762,0.57066-2.50839
		c0.01319-1.33544-1.06087-1.89554-2.11338-1.11292c-0.84357,0.62727-1.61736,1.39592-2.27254,2.22097
		c-1.77673,2.23741-2.94453,4.82418-3.93976,7.47804C27.81703,17.28814,27.27441,19.16705,26.66834,21.02209z M57.21175,23.93269
		c0.45695,0.03099,0.82225,0.08639,1.18547,0.07507c1.51539-0.04723,2.96617-0.21691,3.624-1.91863
		c0.28164-0.72855,0.72727-1.40734,0.91471-2.15494c0.21307-0.84975,0.37638-1.76714,0.2883-2.62708
		c-0.25577-2.4969-2.5785-3.56033-4.6376-2.19c-1.50766,1.00334-2.50251,2.40646-3.00074,4.13436
		c-0.28724,0.99615-0.38122,2.02552,0.09642,3.22246c0.32283-0.66591,0.57735-1.18032,0.82234-1.69923
		c0.24564-0.52028,0.7988-0.72424,1.36067-0.49584c0.56351,0.22907,0.30928,0.63483,0.20061,0.98912
		C57.80009,22.13468,57.51384,22.9951,57.21175,23.93269z M69.40702,28.9796c-2.48808,0.41601-4.85416,0.53584-6.99304,1.62824
		c-0.49501,0.25282-0.96666,0.60458-1.35606,1.00217c-1.37367,1.40255-1.09092,3.29925,0.58749,4.30726
		c1.32891,0.79811,2.65132,0.74767,3.95206-0.02282c1.76963-1.04824,2.87556-2.63809,3.46844-4.57187
		C69.28252,30.61612,69.28817,29.84479,69.40702,28.9796z M39.28021,23.36937c0.9138,0.19651,2.83985,0.10487,3.13685-0.33896
		c0.41718-0.62343,0.57927-1.41851,0.84664-2.14159c0.03742-0.1012,0.06048-0.20926,0.07781-0.31615
		c0.23069-1.42337-0.02221-2.73443-0.94135-3.87287c-0.89927-1.11382-2.03813-1.35207-3.23571-0.58984
		c-1.68303,1.07119-2.5169,2.67966-2.57044,4.6513c-0.02467,0.90841,0.41401,1.65466,1.24123,2.14071
		c0.19499-0.41967,0.34875-0.80327,0.54642-1.16265c0.24541-0.44617,0.6875-0.49272,1.06837-0.2964
		c0.13597,0.07008,0.14118,0.50572,0.11039,0.76302C39.51481,22.58706,39.38392,22.95794,39.28021,23.36937z M60.47775,24.36663
		c-0.6648,0.08973-1.17672,0.17151-1.69158,0.22498c-0.58801,0.06106-1.38235-0.11728-1.71475,0.19984
		c-0.3854,0.36768-0.37249,1.1594-0.51904,1.77028c-0.05552,0.23141-0.09693,0.47137-0.10158,0.70829
		c-0.00393,0.20038,0.05447,0.40199,0.10313,0.71948C58.19344,27.08731,59.30298,25.80431,60.47775,24.36663z M42.17502,23.86931
		c-0.97514,0.06307-1.8586,0.11244-2.74,0.18643c-0.11847,0.00994-0.31704,0.13561-0.32503,0.22194
		c-0.05953,0.64381-0.16678,1.30189-0.08877,1.93443c0.07631,0.61876,0.46864,0.73399,0.98017,0.37366
		C40.96869,25.90438,41.5618,24.91921,42.17502,23.86931z"/>
	<path d="M11.87909,7.69025c-0.82445,1.10716-1.55317,2.13734-2.33912,3.12167C9.07731,11.39136,8.5326,11.9236,7.72308,11.9808
		c-0.4891,0.03456-0.97061,0.0089-1.19225-0.56349C6.3256,10.88728,6.44802,9.7574,6.8075,9.57245
		c0.22255-0.1145,0.54303-0.09653,0.80099-0.04495c0.06987,0.01397,0.103,0.36717,0.09941,0.56369
		c-0.00851,0.46573-0.04915,0.93087-0.07681,1.39625c0.07408,0.04428,0.14816,0.08857,0.22223,0.13285
		c0.53188-0.48678,1.14172-0.91243,1.57968-1.47283c0.96355-1.23292,1.88226-2.5066,2.73343-3.81947
		c0.38291-0.5906,0.54481-1.3219,0.83992-1.97442c0.09162-0.20259,0.26163-0.4481,0.44921-0.50911
		c0.24314-0.07909,0.60039-0.08095,0.79225,0.05211c0.12989,0.09008,0.12066,0.48316,0.06932,0.71782
		c-0.51635,2.36015-1.05588,4.71521-1.58458,7.07267c-0.08405,0.37479-0.1467,0.7544-0.09728,1.17632
		c0.18366-0.35936,0.36069-0.72231,0.55207-1.07749c1.15508-2.14369,2.44813-4.18712,4.48971-5.60819
		c1.24561-0.86703,2.60937-1.39197,4.17665-1.05856c1.09472,0.23288,1.74156,0.92763,2.0478,1.97228
		c0.41436,1.41347,0.23507,2.81599-0.17515,4.1863c-1.00625,3.36131-2.57228,6.42186-5.02897,8.96687
		c-2.02584,2.09866-4.39845,3.62155-7.30182,4.18573c-0.39829,0.0774-0.48631,0.2532-0.48915,0.60639
		c-0.02211,2.74683-0.06199,5.49354-0.07699,8.24039c-0.00257,0.47121-0.10228,0.82676-0.63875,0.67144
		c-0.18649-0.05399-0.39648-0.38877-0.41413-0.60985c-0.19061-2.38772-0.35061-4.77798-0.50456-7.16848
		c-0.03195-0.49608-0.00464-0.996-0.00464-1.4114c-0.90888-0.27706-1.77504-0.43857-2.54918-0.79855
		c-1.58183-0.73555-2.46376-2.88816-1.9656-4.55429c0.33665-1.12595,1.74753-2.10624,3.15258-1.98704
		c-2.36718,0.92094-2.98204,2.46011-2.03551,4.56891c0.59375,1.32285,1.93192,2.07358,3.38247,1.94271
		C9.4402,18.4522,10.52288,13.10539,11.87909,7.69025z M10.94765,23.82606c1.57221-0.35998,3.17974-1.20103,4.60973-2.37641
		c3.02549-2.48681,4.86878-5.75316,6.13135-9.39081c0.54523-1.57089,0.9667-3.17147,0.64993-4.86394
		c-0.27184-1.45238-1.11759-1.95072-2.51021-1.46408c-1.30799,0.45706-2.40627,1.25789-3.27687,2.3048
		c-2.75642,3.31464-4.57392,7.07721-5.15007,11.38457C11.20901,20.85938,11.1013,22.30993,10.94765,23.82606z"/>
</g>
</svg>
