<?xml version="1.0" encoding="utf-8"?>
<!-- Generator: Adobe Illustrator 26.2.1, SVG Export Plug-In . SVG Version: 6.00 Build 0)  -->
<svg version="1.1" id="SendAMessage_xA0_Image_00000147931307690009710670000003289422003310946712_"
	 xmlns="http://www.w3.org/2000/svg" xmlns:xlink="http://www.w3.org/1999/xlink" x="0px" y="0px" viewBox="0 0 58.90909 10.47273"
	 style="enable-background:new 0 0 58.90909 10.47273;" xml:space="preserve">
<g>
	<path d="M5.62097,2.61949c-0.34379-0.95914-1.20309-1.96651-2.3126-1.45612c-1.0505,0.48324-2.4534,1.98333-2.06271,3.24393
		c0.23493,0.75803,1.15844,1.1931,1.81327,1.51856c0.7018,0.3488,1.55077,0.65641,1.5339,1.57993
		C4.5778,8.32889,4.13143,9.25977,3.31076,9.54224C3.0171,9.64332,2.66341,9.65575,2.4606,9.37691
		C2.19121,9.00654,2.47366,8.51469,2.72043,8.21844c0.32714-0.39273,0.76759-0.63581,1.1824-0.92113
		c0.38275-0.26327,0.75591-0.54062,1.12622-0.82103c0.51094-0.38691,1.01644-0.78151,1.51486-1.18445
		C6.62983,5.22237,6.19136,5.08416,6.0717,5.1809C5.65563,5.51727,5.23423,5.84726,4.80959,6.17273
		C4.12187,6.69986,3.3675,7.1487,2.69022,7.68447C2.20964,8.06464,1.46053,8.94304,2.1059,9.51715
		C2.50411,9.8714,3.16415,9.88115,3.64468,9.72527c0.71677-0.23251,1.1806-0.87214,1.3601-1.58273
		c0.19136-0.75759,0.03317-1.38937-0.63346-1.82098C3.6038,5.82463,2.63831,5.5873,2.0049,4.89133
		C1.43454,4.26464,1.72375,3.39149,2.13766,2.76805c0.24098-0.36298,0.539-0.69065,0.87004-0.9734
		c0.24402-0.20843,0.59089-0.5036,0.92359-0.55373C4.51623,1.15278,4.97525,2.1658,5.13594,2.61411
		C5.1835,2.7468,5.67157,2.76064,5.62097,2.61949L5.62097,2.61949z"/>
</g>
<g>
	<path d="M6.54065,5.34741c0.25938,0.0376,0.52505-0.04706,0.7559-0.15912C7.62889,5.02696,7.9936,4.80216,8.06016,4.40657
		c0.05321-0.31622-0.12593-0.56422-0.41565-0.67834C7.2456,3.57109,6.79829,3.68159,6.46215,3.93115
		C5.86669,4.37323,5.70836,5.27059,6.30355,5.7815C6.9086,6.30087,7.71579,6.13661,8.37584,5.83251
		c0.51262-0.23617,1.00599-0.54214,1.44976-0.89153c0.10214-0.08041-0.33038-0.27755-0.44862-0.18446
		C9.10184,4.97314,8.8059,5.16737,8.50416,5.34441c-0.25689,0.15073-0.52306,0.2872-0.80216,0.39213
		C7.46337,5.82626,7.19018,5.91503,6.93156,5.88332C6.9166,5.88149,6.86558,5.86359,6.88625,5.87285
		C6.82273,5.84438,6.76453,5.81023,6.71016,5.76647C6.59824,5.6764,6.51375,5.55565,6.46302,5.42162
		C6.35707,5.14177,6.39758,4.83086,6.52905,4.56664c0.14451-0.29043,0.40597-0.51817,0.71133-0.62611
		c0.07701-0.02722,0.1529-0.04446,0.23421-0.0516c0.07134-0.00626,0.01975,0.01745,0.00065-0.00696
		c0.05618,0.07177,0.10198,0.14275,0.11165,0.24622c0.03163,0.33837-0.22842,0.5805-0.49098,0.74034
		c-0.16853,0.1026-0.35556,0.19588-0.55033,0.23688C6.50637,5.11366,6.4668,5.11793,6.42688,5.12091
		c-0.03642,0.00272,0.04126,0.0058-0.0022-0.00076c-0.0377-0.00569,0.0433,0.00542,0.04158,0.00517
		C6.40882,5.11699,6.25126,5.09767,6.26444,5.19523C6.27648,5.28435,6.47548,5.33797,6.54065,5.34741L6.54065,5.34741z"/>
</g>
<g>
	<path d="M9.99321,3.39361c-0.34818,1.06154-0.47249,2.2315-0.45652,3.34239c0.00229,0.15932,0.48956,0.22627,0.48788,0.10941
		c-0.01597-1.11088,0.10834-2.28086,0.45652-3.34239C10.52203,3.37822,10.04035,3.24992,9.99321,3.39361L9.99321,3.39361z"/>
</g>
<g>
	<path d="M10.0207,6.43885c0.14203-0.2009,0.21819-0.47544,0.31896-0.69818c0.17869-0.39499,0.36614-0.78876,0.59261-1.15898
		c0.10298-0.16835,0.21385-0.33574,0.34878-0.48052c0.04643-0.04982,0.0952-0.09908,0.15252-0.13642
		c0.01607-0.01047,0.05451-0.02472,0.06463-0.03835c0.04311-0.0581-0.14792,0.01837-0.13723-0.01897
		c0.00085-0.00298,0.08047,0.17714,0.08689,0.22362c0.02027,0.1467,0.01124,0.29803-0.00094,0.44499
		c-0.03234,0.39033-0.10679,0.77635-0.16453,1.16337c-0.04913,0.32933-0.1133,0.68335-0.06634,1.01661
		c0.12306,0.87335,1.22384,0.30612,1.62722-0.00165c0.70139-0.53515,1.30183-1.2412,1.80706-1.96193
		c0.07922-0.11301-0.39363-0.20059-0.4785-0.07951c-0.43253,0.61701-0.93541,1.21021-1.50086,1.7085
		c-0.19879,0.17518-0.41152,0.33931-0.64382,0.46791c-0.08967,0.04964-0.18937,0.07714-0.27872,0.12407
		c-0.02279,0.01197-0.04603,0.00212-0.03714,0.01128c0.00146,0.0015,0.08934,0.01277,0.09433,0.0118
		c0.04418-0.00859,0.01556,0.01374,0.01605,0.00241c0.00051-0.01169-0.05576-0.07395-0.06421-0.09208
		c-0.02597-0.05573-0.03632-0.1166-0.04401-0.17714c-0.01942-0.15293-0.01085-0.30981,0.00168-0.46291
		c0.03219-0.39332,0.10639-0.78227,0.1649-1.17216c0.04787-0.319,0.11456-0.6663,0.0652-0.98908
		c-0.04671-0.30539-0.26181-0.43234-0.56791-0.42169c-0.33236,0.01156-0.5601,0.25397-0.74386,0.50661
		c-0.28866,0.39688-0.50437,0.84835-0.7092,1.29249c-0.1225,0.26562-0.21229,0.5963-0.38205,0.83642
		C9.4628,6.47165,9.93525,6.55973,10.0207,6.43885L10.0207,6.43885z"/>
</g>
<g>
	<path d="M18.03724,6.34149c0.05493-0.03287,0.2114-0.17783,0.2303-0.23155c0.02004-0.01471,0.04008-0.02941,0.06011-0.04411
		c-0.08525-0.09476-0.11833-0.10984-0.09925-0.04525c-0.0138,0.03089,0.00457,0.07986-0.0121,0.11389
		c-0.11945,0.24378-0.19835,0.49099-0.34765,0.72578c-0.31437,0.49439-0.80784,1.16722-1.39973,1.34831
		c-0.04901,0.01499-0.09937,0.03282-0.15128,0.03429c-0.12848,0.00362,0.01983,0.04129-0.01938,0.00011
		c-0.05674-0.05958-0.08093-0.15344-0.10283-0.23c-0.07443-0.26028-0.07007-0.54851-0.05745-0.81599
		c0.03357-0.71174,0.17743-1.42106,0.34867-2.11099c0.16733-0.67415,0.36982-1.34434,0.63479-1.98699
		c0.27111-0.65753,0.64993-1.18014,1.15904-1.68217c0.28039-0.27649,0.58062-0.53794,0.9078-0.75786
		c0.151-0.10149,0.31148-0.20423,0.48363-0.26617c0.03642-0.01311,0.15746-0.06832,0.19572-0.05176
		C19.716,0.27537,19.8245,0.37235,19.7944,0.43489c-0.2594,0.53888-0.77386,0.87211-1.281,1.1747
		c-0.72642,0.43344-1.5513,0.82657-2.39479,0.95426c-0.49322,0.07467-1.10572,0.05457-1.48471-0.31274
		c-0.31188-0.30227-0.40713-0.74587-0.39463-1.16542c0.00486-0.16321-0.46843-0.27333-0.47163-0.16604
		C13.7395,1.86418,14.2921,2.5266,15.20147,2.75433c0.97688,0.24464,1.95199-0.05637,2.84018-0.46048
		c0.47527-0.21624,0.93789-0.46803,1.36545-0.76858c0.28727-0.20194,0.63428-0.44743,0.80032-0.76883
		c0.11918-0.2307,0.04467-0.4341-0.17919-0.5627c-0.2913-0.16734-0.61138-0.10453-0.8985,0.03343
		c-0.86838,0.41727-1.74755,1.27778-2.20861,2.12319c-0.42476,0.77883-0.6799,1.66888-0.89482,2.52469
		c-0.19561,0.7789-1.06291,3.81121,0.63247,3.61275c0.81904-0.09587,1.5177-1.10621,1.86326-1.77434
		c0.12646-0.24452,0.30126-0.56633,0.04039-0.77565c-0.13269-0.10647-0.34067-0.17715-0.51101-0.14584
		c-0.21706,0.0399-0.28296,0.23853-0.45129,0.33926C17.49623,6.1934,17.90638,6.4198,18.03724,6.34149L18.03724,6.34149z"/>
</g>
<g>
	<path d="M16.63824,4.00837c-0.24332-0.08527-0.50728-0.1313-0.76341-0.15209c-0.36661-0.02975-0.80345-0.00671-1.11604,0.21052
		c-0.21594,0.15007-0.38693,0.36508-0.53375,0.58037c-0.16326,0.23941-0.30263,0.49864-0.40096,0.7716
		c-0.07191,0.19961-0.14416,0.44984-0.0563,0.65641c0.10931,0.25699,0.48411,0.28264,0.7197,0.25305
		c0.5546-0.06967,1.01188-0.54994,1.36807-0.9416c0.29914-0.32892,0.57886-0.68171,0.82695-1.05099
		c0.07924-0.11794-0.39563-0.20865-0.47714-0.08732c-0.17514,0.2607-0.36816,0.5109-0.56842,0.75261
		C15.31273,5.39225,14.94843,5.8143,14.4921,6.0546c-0.04969,0.02617-0.07092,0.03619-0.11444,0.05186
		c-0.02216,0.00798-0.04454,0.01461-0.06707,0.02141c-0.03207,0.00969,0.04661-0.00747-0.00605,0.00165
		c-0.01342,0.00233-0.02715,0.00388-0.04046,0.00658c-0.0313,0.00636,0.04399-0.00238,0.01252-0.00137
		c-0.03604,0.00115-0.00744-0.0026-0.00669,0.00102c-0.00018-0.00088,0.02976,0.00336,0.03407,0.00453
		c0.04882,0.01333-0.02827-0.00924,0.01322,0.00421c0.03207,0.0104-0.00511,0.00112-0.00612-0.00396
		c-0.00265-0.01326,0.0187,0.01193,0.00485,0.00271c-0.00809-0.00539-0.01779-0.0122-0.02404-0.01984
		c0.01509,0.01845-0.01499-0.02006-0.01916-0.02729c-0.00856-0.01488-0.01641-0.02972-0.02265-0.04576
		C14.2371,6.01702,14.23217,5.98351,14.22959,5.947c-0.00699-0.09877,0.00944-0.19876,0.03267-0.29445
		c0.11642-0.47946,0.41308-0.9619,0.75722-1.31201c0.19948-0.20294,0.44568-0.29462,0.72354-0.29133
		c0.15868,0.00188,0.28466,0.02366,0.45276,0.06167c0.03674,0.00831-0.03257-0.00839,0.00123,0.00022
		c0.01485,0.00378,0.02969,0.00761,0.04449,0.01161c0.0239,0.00645,0.04773,0.0132,0.07142,0.02035
		c0.02053,0.0062,0.04106,0.01252,0.06131,0.01961c0.09193,0.03222,0.25965,0.05065,0.34373-0.01146
		C16.80605,4.08615,16.70261,4.03092,16.63824,4.00837L16.63824,4.00837z"/>
</g>
<g>
	<path d="M23.57202,4.38292c-0.22402-0.43761-0.70855-0.69598-1.19572-0.6543c-0.44508,0.03808-0.80354,0.35518-1.07205,0.68924
		c-0.24682,0.30707-0.43691,0.67751-0.50566,1.06768c-0.04604,0.2613-0.04778,0.58647,0.11993,0.80861
		c0.16516,0.21877,0.49156,0.30014,0.74828,0.21676c0.21808-0.07083,0.39864-0.24684,0.55587-0.40665
		c0.20391-0.20725,0.3888-0.43326,0.56683-0.66282c0.27328-0.35236,0.53333-0.717,0.77555-1.09151
		c0.08158-0.12613-0.39396-0.23506-0.471-0.11593c-0.1667,0.25773-0.34326,0.50956-0.52432,0.75734
		c-0.29936,0.40967-0.61289,0.83439-0.99869,1.16782c-0.06889,0.05954-0.12475,0.10464-0.20492,0.14714
		c-0.0167,0.00885-0.03366,0.01679-0.05092,0.02445c-0.00834,0.0037-0.0303,0.0137,0.00897-0.00269
		c-0.00402,0.00168-0.01779,0.00693-0.02092,0.00631c-0.04398-0.00869,0.02669-0.00205,0.00252,0.00012
		c0.04803-0.00432,0.09405,0.006,0.15877,0.01973c-0.03715-0.00788,0.00505-0.00284,0.00736,0.00463
		c0.00094,0.00305-0.04029-0.02637-0.01991-0.01029c0.01091,0.0086-0.02782-0.02396-0.03415-0.03026
		c-0.03113-0.03101-0.05324-0.06738-0.07487-0.11252c-0.04771-0.09956-0.06733-0.2081-0.07254-0.31768
		c-0.01508-0.31717,0.07876-0.64252,0.22286-0.9226c0.18167-0.35309,0.46395-0.71555,0.80894-0.92081
		c0.07108-0.04229,0.14549-0.07853,0.2258-0.09914c0.00389-0.001,0.05291-0.0114,0.03025-0.0076
		c0.00518-0.00087,0.06373-0.00651,0.03755-0.00503c-0.026,0.00147,0.0187,0.00005,0.02454,0.00034
		c0.01883,0.00075,0.01436,0.00022-0.01338-0.00158c0.01033,0.00107,0.02063,0.00245,0.03087,0.00414
		c0.01917,0.02207-0.03253-0.01626-0.00553-0.00025c0.01581,0.00938,0.04158,0.01423,0.00873,0.00206
		c0.01524,0.00565,0.03043,0.01128,0.04533,0.01778c0.02071,0.00903-0.02001-0.01101,0.01235,0.00685
		c0.06134,0.03385,0.0803,0.04684,0.12987,0.08918c0.1093,0.09335,0.19191,0.19091,0.25849,0.32097
		c0.04588,0.08962,0.20814,0.10791,0.29572,0.10957C23.42628,4.4828,23.61731,4.47139,23.57202,4.38292L23.57202,4.38292z"/>
</g>
<g>
	<path d="M23.60979,3.01835c-0.28724,0.76917-0.53486,1.56524-0.69892,2.36988c-0.08541,0.4189-0.2025,0.93646-0.05862,1.35541
		c0.17906,0.5214,0.9327,0.35291,1.30795,0.17904c0.50824-0.23549,1.09376-1.01383,0.58383-1.53333
		c-0.07426-0.07566-0.21012-0.07776-0.3087-0.06445c-0.03176,0.00429-0.24255,0.05462-0.17243,0.12605
		c0.38543,0.39267,0.04748,1.02284-0.33822,1.27c-0.12561,0.08049-0.26682,0.13353-0.41412,0.15635
		c-0.07148,0.01108-0.11431-0.00528-0.03555,0.01526c-0.0104-0.00271-0.00399,0.01273-0.03035-0.0185
		c-0.08075-0.09567-0.11948-0.20261-0.13664-0.33379c-0.05627-0.43014,0.04152-0.88744,0.13353-1.30571
		c0.10363-0.4711,0.23731-0.93584,0.38483-1.39494c0.08368-0.26043,0.1707-0.52024,0.26641-0.77654
		C24.14755,2.91641,23.65787,2.8896,23.60979,3.01835L23.60979,3.01835z"/>
</g>
<g>
	<path d="M27.35885,3.4226c0.08565,0.09629,0.06356,0.37263,0.08748,0.49518c0.04195,0.21499,0.10358,0.44311,0.26288,0.60258
		c0.27498,0.2753,0.75052,0.28423,1.08311,0.11623c0.37828-0.19107,0.70878-0.51564,1.01099-0.80578
		c0.4074-0.39113,0.79027-0.80884,1.15188-1.24251c0.32304-0.38743,0.64704-0.79138,0.89334-1.23338
		c0.0921-0.16528,0.28994-0.47262,0.12067-0.64524c-0.22005-0.22441-0.65648-0.07992-0.8507,0.09341
		c-0.36555,0.32623-0.58326,0.84201-0.77365,1.28169c-0.81063,1.87202-1.23499,3.96195-1.37861,5.98994
		c-0.01004,0.14178,0.48833,0.18209,0.49834,0.04067c0.1096-1.54768,0.40224-3.08858,0.86136-4.57069
		c0.18756-0.60548,0.4013-1.20887,0.68403-1.77715c0.09437-0.18967,0.19616-0.37736,0.31634-0.55211
		c0.08841-0.12855,0.26573-0.24669,0.33697-0.37237c-0.00084,0.00148,0.05485-0.02945,0.05534-0.03229
		c0.01625-0.0937-0.18102-0.04681-0.19099-0.03427c-0.00486,0.00611,0.01495,0.05715,0.00764,0.07257
		c-0.0486,0.10254-0.06437,0.2253-0.1185,0.33158c-0.16798,0.32979-0.39678,0.63252-0.62265,0.92409
		c-0.55134,0.71171-1.16662,1.39821-1.85131,1.98458c-0.17881,0.15314-0.59423,0.59981-0.80899,0.34759
		c-0.14795-0.17376-0.18594-0.43424-0.21712-0.65157c-0.01443-0.10059-0.00071-0.29524-0.073-0.37651
		C27.74283,3.29541,27.28757,3.34246,27.35885,3.4226L27.35885,3.4226z"/>
</g>
<g>
	<path d="M29.55013,7.11097c0.89595-1.63964,1.84634-3.30772,3.01011-4.77312c0.24953-0.31421,0.51511-0.64227,0.85116-0.86768
		c0.05995-0.04022,0.07392-0.07386,0.01334-0.02898c-0.07155,0.05302-0.03773-0.04748,0.00581,0.04012
		c0.06376,0.12829,0.10379,0.23174,0.11699,0.3801c0.04093,0.46019-0.05186,0.93866-0.1403,1.38792
		c-0.1167,0.59281-0.2685,1.17865-0.43203,1.76009c-0.23293,0.8282-0.48899,1.65177-0.77366,2.46377
		c-0.04757,0.13569,0.43616,0.10918,0.48425-0.02801c0.26498-0.75582,0.50417-1.52186,0.72479-2.29168
		c0.18024-0.62891,0.34789-1.26289,0.4755-1.9048c0.09448-0.47526,0.19775-0.98373,0.15444-1.47071
		c-0.02834-0.31865-0.15772-0.56086-0.50974-0.54721c-0.37825,0.01467-0.68479,0.27483-0.93715,0.5316
		c-0.84505,0.85983-1.49178,1.94386-2.12084,2.96407c-0.4884,0.7921-0.96066,1.5958-1.40693,2.4125
		C29.00624,7.24813,29.47732,7.24422,29.55013,7.11097L29.55013,7.11097z"/>
</g>
<g>
	<path d="M32.77034,7.1859c0.11531-0.07351,0.18255-0.2442,0.24998-0.35738c0.16814-0.28219,0.33338-0.56607,0.5034-0.84715
		c0.43632-0.72135,0.89079-1.44061,1.42762-2.09236c0.22575-0.27407,0.46893-0.54856,0.75726-0.75883
		c0.11066-0.0807,0.23087-0.12052,0.34642-0.18672c0.00662-0.00379,0.08002-0.0193,0.07206-0.01629
		c-0.09715,0.03679-0.04283-0.07149-0.04773-0.00012c-0.0031,0.04511,0.06184,0.14415,0.07024,0.1995
		c0.01657,0.10929,0.00507,0.2259-0.0071,0.3349c-0.03343,0.29944-0.11359,0.59415-0.19742,0.88277
		c-0.21084,0.72588-0.47812,1.43427-0.71749,2.1509c-0.20261,0.60659-0.44581,1.25653-0.46909,1.90261
		c-0.0181,0.50233,0.24044,0.77878,0.75536,0.78616c0.78321,0.01121,1.3699-0.6363,1.73051-1.2652
		c0.21947-0.38276,0.77464-1.4578,0.08406-1.6805c-0.75333-0.24294-1.35172,0.50915-1.11583,1.20453
		c0.04597,0.13551,0.53078,0.17104,0.48394,0.03295c-0.0697-0.20547-0.07546-0.45882,0.01205-0.6593
		c0.03826-0.08765,0.09452-0.16235,0.16657-0.22524c0.05334-0.04655,0.3337-0.13264,0.36045-0.17238
		c-0.01413,0.021-0.10121-0.0724-0.11727-0.00997C37.11311,6.42902,37.15744,6.54179,37.16005,6.57
		c0.05765,0.62457-0.412,1.36642-0.80465,1.80772c-0.23049,0.25905-0.54038,0.5355-0.89817,0.58459
		c-0.03297,0.00452-0.15263-0.00077-0.12774,0.00527c0.10236,0.02481,0.04709,0.0268,0.02785-0.00623
		c-0.03795-0.06516-0.07115-0.11767-0.08901-0.194c-0.11335-0.48463,0.11017-1.08789,0.24728-1.54515
		c0.2062-0.68768,0.45631-1.36128,0.68449-2.04175c0.18496-0.55158,0.40158-1.13355,0.443-1.71876
		c0.02981-0.42121-0.12698-0.70107-0.57668-0.74432c-0.57283-0.05509-1.0377,0.41773-1.38744,0.80874
		c-0.58231,0.65102-1.05838,1.3988-1.51332,2.14168c-0.18746,0.3061-0.36927,0.61554-0.55201,0.92446
		c-0.05858,0.09903-0.11617,0.19894-0.17791,0.29604c-0.02031,0.03194-0.10509,0.14268-0.07249,0.1219
		C32.20132,7.11342,32.65713,7.25807,32.77034,7.1859L32.77034,7.1859z"/>
</g>
<g>
	<path d="M37.82298,4.38941c-0.05411-0.02268-0.0011,0.00351,0.01635,0.02104c0.02591,0.02603,0.05379,0.05096,0.08157,0.07495
		c0.08085,0.06983,0.16993,0.13163,0.26596,0.17889c0.27721,0.13642,0.61144,0.16071,0.90796,0.07807
		c0.49992-0.13932,0.80315-0.57228,0.93033-1.05609c0.09512-0.36183,0.09157-0.83709-0.33601-0.96238
		c-0.41978-0.12301-0.82662,0.06061-1.07721,0.39699c-0.2524,0.3388-0.3973,0.77023-0.46586,1.18344
		c-0.06595,0.39747-0.07167,0.85162,0.1179,1.21891c0.20604,0.3992,0.64774,0.54151,1.07436,0.52563
		c0.49058-0.01826,0.91098-0.26295,1.25166-0.60315c0.56685-0.56604,0.96967-1.34541,1.23373-2.09744
		c0.03619-0.10307-0.44506-0.18233-0.49921-0.02813c-0.17671,0.50326-0.42832,0.99428-0.72382,1.43718
		c-0.22752,0.34102-0.49784,0.67731-0.84698,0.90016c-0.23601,0.15064-0.53983,0.27511-0.77859,0.11177
		c-0.26505-0.18132-0.34798-0.54165-0.3656-0.84227c-0.02182-0.3722,0.04384-0.75181,0.16417-1.10351
		c0.10083-0.29468,0.25496-0.62319,0.50211-0.82458c0.03896-0.03175,0.08974-0.06649,0.13238-0.08422
		c0.00557-0.00232,0.08392-0.029,0.08463-0.024c-0.00103-0.00719-0.06112-0.00654-0.0611-0.00672
		c-0.00013,0.00115,0.08905,0.10579,0.097,0.1228c0.03208,0.06865,0.04307,0.14432,0.04747,0.21934
		c0.02394,0.40809-0.1586,0.88017-0.46002,1.15816c-0.16561,0.15274-0.39016,0.26252-0.59877,0.14275
		c-0.1199-0.06884-0.20726-0.206-0.33345-0.25889c-0.10378-0.04349-0.24555-0.06214-0.35299-0.01989
		C37.74786,4.28088,37.72704,4.3492,37.82298,4.38941L37.82298,4.38941z"/>
</g>
<g>
	<path d="M41.32424,2.72271c0.00873,0.36324,0.08124,0.73545,0.20619,1.07584c0.06178,0.16831,0.16742,0.31881,0.21889,0.48965
		c0.04257,0.14128,0.05898,0.29138,0.06915,0.43804c0.02494,0.35934,0.00225,0.72497-0.05571,1.08019
		c-0.04618,0.28302-0.10682,0.6071-0.29189,0.83638c-0.04909,0.06081-0.0697,0.03373,0.06012,0.02932
		c0.14753-0.00501,0.09484,0.01559,0.03863-0.04656c-0.04905-0.05423-0.05647-0.11872-0.04869-0.18956
		c0.02323-0.21156,0.18805-0.41504,0.31469-0.57577c0.42111-0.53447,0.9511-0.98763,1.47105-1.42246
		c0.35622-0.29792,0.71974-0.58872,1.09352-0.86446c0.09027-0.0666-0.03672-0.1205-0.09406-0.13385
		C44.20531,3.416,44.0528,3.42191,43.96542,3.48637c-0.35902,0.26485-0.70839,0.54383-1.05124,0.82918
		c-0.56617,0.47123-1.1516,0.96613-1.59958,1.55539c-0.12956,0.17042-0.29768,0.39707-0.29636,0.6231
		c0.00156,0.26387,0.29404,0.37639,0.51945,0.36904c0.32827-0.01071,0.48976-0.23016,0.58989-0.51839
		c0.12585-0.36227,0.17686-0.7526,0.19443-1.13423c0.01638-0.35578,0.02502-0.77122-0.13419-1.10015
		c-0.21521-0.44463-0.35188-0.90576-0.36385-1.40376C41.82061,2.56625,41.32079,2.57916,41.32424,2.72271L41.32424,2.72271z"/>
</g>
<g>
	<path d="M44.41235,2.55923c0.01549-0.03089-0.0303,0.03459-0.03906,0.04564c-0.03314,0.0418-0.06403,0.08494-0.09287,0.12983
		c-0.08656,0.13474-0.15034,0.28139-0.186,0.43777c-0.10695,0.46909,0.07681,0.87828,0.16608,1.32865
		c0.083,0.41875,0.10075,0.85311,0.0682,1.27828c-0.02625,0.34292-0.07676,0.72295-0.25116,1.02613
		c-0.03523,0.06125-0.07661,0.11941-0.12814,0.16818c-0.01957,0.01853-0.14095,0.07798-0.14595,0.09113
		c0.00291-0.00765-0.02163,0.00796-0.02201,0.00461c-0.00201-0.01752,0.07129,0.02895,0.07821,0.0273
		c0.02403-0.00571-0.00824,0.0037-0.0169-0.04178c-0.03946-0.20724,0.02253-0.40157,0.10181-0.59501
		c0.27084-0.66079,0.73948-1.25667,1.2236-1.77392c0.52626-0.56228,1.23571-1.23562,2.03993-1.32384
		c0.10473-0.01149,0.09604-0.0804,0.03257-0.13762c-0.08147-0.07344-0.2398-0.09285-0.34405-0.08141
		c-0.79099,0.08677-1.48559,0.67098-2.02478,1.21358c-0.56282,0.56639-1.10827,1.24261-1.41383,1.98808
		c-0.0782,0.19078-0.17743,0.45323-0.0934,0.65885c0.10597,0.25932,0.51131,0.32384,0.75083,0.28016
		c0.32428-0.05913,0.48426-0.37802,0.57304-0.66489c0.13263-0.42858,0.15549-0.89537,0.13569-1.34086
		c-0.01104-0.24839-0.03711-0.49738-0.08704-0.74109c-0.06148-0.30005-0.18616-0.58255-0.19145-0.89311
		c-0.0041-0.24117,0.04669-0.48384,0.16323-0.69622c0.05335-0.09722,0.14094-0.17547,0.18999-0.2733
		C44.95068,2.57113,44.48439,2.41555,44.41235,2.55923L44.41235,2.55923z"/>
</g>
<g>
	<path d="M48.74599,4.03457c0.0149,0.02988,0.0011,0.00503,0.00218-0.0234c0.00123-0.03239,0.00156-0.06489,0.00224-0.0973
		c0.00201-0.09552,0.00159-0.19116-0.00658-0.28642c-0.01878-0.2189-0.07281-0.46032-0.2538-0.60387
		c-0.27657-0.21936-0.70373-0.19209-1.01264-0.06494c-0.27567,0.11347-0.50094,0.33682-0.67624,0.57271
		c-0.18671,0.25122-0.33444,0.53878-0.42785,0.83767c-0.07111,0.22753-0.12552,0.49579-0.04177,0.72782
		c0.09621,0.26653,0.41914,0.3378,0.67172,0.3282c0.34165-0.013,0.6385-0.17491,0.90221-0.3814
		c0.43209-0.33834,0.80019-0.78835,1.09573-1.24967c0.07994-0.12478-0.39653-0.22479-0.47371-0.10432
		c-0.21228,0.33134-0.46418,0.64509-0.73886,0.92628c-0.19965,0.20438-0.41932,0.39956-0.67798,0.52583
		c-0.05277,0.02576-0.10562,0.04626-0.16209,0.06226c-0.04977,0.01411-0.08046,0.01867-0.10735,0.01619
		c-0.03336-0.00308,0.03589,0.00341,0.04169,0.00418c0.05334,0.00707-0.02947-0.0112,0.01685,0.00432
		c0.04701,0.01575-0.02803-0.00631,0.01229,0.00473c0.02982,0.00816-0.00764-0.00194-0.01318-0.00777
		c0.0252,0.02658-0.00893-0.00784-0.01699-0.01609c-0.01074-0.01099-0.00805-0.00471-0.02469-0.03086
		c-0.10335-0.16241-0.07475-0.38286-0.03779-0.56134c0.05488-0.26505,0.16381-0.51895,0.30191-0.75088
		c0.13714-0.2303,0.30862-0.45626,0.52422-0.61881c0.09357-0.07055,0.19816-0.12874,0.30312-0.15838
		c0.02754-0.00778,0.04891-0.01275,0.07317-0.01681c0.01513-0.00254,0.03054-0.00321,0.04574-0.00507
		c-0.01538,0.00189-0.02843,0.01218,0.00373,0.00177c-0.01091,0.00353-0.04988-0.00947-0.0074,0.00107
		c-0.01644-0.00408-0.03656-0.0085-0.05288-0.01151c0.0067,0.00124,0.02552,0.00695,0.03244,0.0115
		c-0.0438-0.02883,0.00891,0.0076,0.01031,0.00891c-0.02149-0.02009,0.02688,0.02482,0.03216,0.03015
		c0.01477,0.01493,0.02052,0.02214,0.03358,0.04099c0.03136,0.04525,0.05474,0.09602,0.07314,0.14775
		c0.03447,0.09688,0.04861,0.19906,0.05602,0.30122c0.00674,0.09295,0.00637,0.18611,0.0042,0.27922
		c-0.00108,0.04612-0.01364,0.11387,0.0081,0.15748C48.3261,4.16672,48.80783,4.15865,48.74599,4.03457L48.74599,4.03457z"/>
</g>
<g>
	<path d="M48.77528,2.81372c-0.25388,0.69944-0.4766,1.4493-0.53513,2.19307c-0.02573,0.32697-0.03735,0.81095,0.31633,0.97349
		c0.5289,0.24308,1.17957-0.0959,1.53679-0.48403c0.28489-0.30954,0.50225-0.70493,0.63292-1.10487
		c0.03359-0.1028-0.44894-0.16879-0.49983-0.01304c-0.0851,0.26048-0.25381,0.58101-0.42999,0.82565
		c-0.14993,0.20819-0.32873,0.39771-0.55243,0.52707c-0.09499,0.05493-0.20065,0.09829-0.30992,0.11374
		c-0.01169,0.00116-0.02338,0.00231-0.03508,0.00347c-0.04027,0.00244-0.04735,0.00303-0.02125,0.00176
		c0.00439-0.00652,0.07911,0.00658,0.02725,0.00019c0.04225,0.00521,0.01488,0.00477,0.00065-0.00838
		c-0.22663-0.20942-0.18683-0.62874-0.15685-0.91715c0.0461-0.44348,0.15339-0.88091,0.27521-1.30899
		c0.07548-0.26522,0.15703-0.52964,0.25114-0.78893C49.31054,2.72914,48.83171,2.65826,48.77528,2.81372L48.77528,2.81372z"/>
</g>
<g>
	<path d="M52.69122,4.19103c0.02729,0.01224,0.02193,0.0358,0.02578,0.02139c0.00263-0.00983-0.0048-0.03019-0.0061-0.04092
		c-0.00572-0.04688-0.00736-0.09436-0.01106-0.14143c-0.00978-0.12455-0.02418-0.24989-0.05973-0.37007
		c-0.03706-0.12528-0.09566-0.24987-0.19743-0.3351c-0.14664-0.1228-0.35032-0.15416-0.5363-0.13891
		c-0.5615,0.04605-1.03501,0.5426-1.36253,0.9589c-0.16656,0.21171-0.32417,0.44854-0.40321,0.70853
		c-0.05843,0.1922-0.0786,0.42463,0.08794,0.57075c0.24251,0.21275,0.6508,0.19838,0.94223,0.12282
		c0.33788-0.0876,0.63148-0.28425,0.88421-0.52052c0.38064-0.35586,0.70938-0.79488,0.9627-1.25054
		c0.04859-0.0874-0.14312-0.10393-0.18638-0.10431c-0.08554-0.00076-0.24977,0.01329-0.29867,0.10124
		c-0.18189,0.32717-0.405,0.64114-0.65165,0.92208c-0.18749,0.21355-0.39814,0.42492-0.6447,0.56982
		c-0.04493,0.0264-0.12801,0.06872-0.14674,0.07647c-0.02925,0.0121-0.05919,0.02252-0.08934,0.03216
		c-0.04325,0.01382-0.01068,0.00299-0.00156,0.00074c-0.01996,0.00493-0.04004,0.00894-0.06015,0.01314
		c0.08605-0.01796-0.0971,0.00994-0.00873,0.00111c-0.01213,0.00121-0.02877,0.00115-0.04036-0.00007
		c0.04461,0.0047,0.00878,0.00093-0.0001-0.00006c-0.04094-0.00455-0.05429-0.00782-0.06613-0.01113
		c-0.01104-0.00308-0.02199-0.00623-0.03295-0.00963c-0.03884-0.01205,0.01314,0.008-0.01886-0.00694
		c-0.15219-0.07105-0.19868-0.22533-0.16927-0.40578c0.03657-0.22442,0.1659-0.43847,0.29196-0.62327
		c0.15091-0.22126,0.32908-0.42375,0.52708-0.604c0.0922-0.08393,0.18898-0.16356,0.29218-0.23367
		c0.01283-0.00871,0.0217-0.01464,0.05182-0.03264c0.01886-0.01127,0.03794-0.02219,0.05731-0.03257
		c0.02272-0.01218,0.04582-0.0234,0.06918-0.0343c-0.04657,0.02171,0.01498-0.00245,0.03003-0.01031
		c0.03121-0.0163-0.01402,0.00411-0.021,0.00502c0.01204-0.00159,0.0238-0.00626,0.03588-0.00811
		c-0.07922,0.01216-0.04488,0.00685-0.02593,0.00501c0.02049-0.00167,0.00734-0.00097-0.03942,0.0021
		c0.02587,0.00048,0.03089,0.00059,0.01506,0.00033c-0.00032,0.00201,0.00943,0.00132,0.03273,0.01177
		c0.02246,0.01007,0.04469,0.02364,0.06333,0.039c0.09805,0.08079,0.14611,0.20774,0.17508,0.32736
		c0.02911,0.12022,0.03984,0.24352,0.04888,0.36656c0.00459,0.06257-0.00425,0.17148,0.06592,0.20297
		c0.10454,0.0469,0.23751,0.03804,0.34393,0.00034C52.66592,4.31875,52.79707,4.23853,52.69122,4.19103L52.69122,4.19103z"/>
</g>
<g>
	<path d="M53.185,2.72334c-0.33823,0.46518-0.5887,1.01793-0.75448,1.56571c-0.23474,0.77565-0.20186,1.59189-0.43053,2.37159
		c-0.48229,1.64452-1.70628,3.33974-3.5955,3.34874c-0.86609,0.00413-1.48262-0.53748-1.51744-1.41039
		c-0.02652-0.66467,0.20208-1.30119,0.8221-1.61675c0.70789-0.36027,1.50918-0.2008,2.26537-0.31553
		c0.68525-0.10396,1.35139-0.33171,1.99186-0.59097c1.05848-0.42848,2.09245-0.95607,3.06466-1.55596
		c0.2201-0.13581-0.26003-0.15664-0.37035-0.08857c-1.00019,0.61716-2.06507,1.16135-3.16049,1.58625
		c-0.3831,0.1486-0.77317,0.28136-1.17333,0.37618c-0.4272,0.10123-0.83309,0.09985-1.2682,0.11594
		c-0.70535,0.02608-1.50377,0.14391-2.0654,0.61039C46.48142,7.54508,46.32459,8.2337,46.4076,8.8739
		c0.09871,0.7613,0.69018,1.21099,1.41942,1.31699c1.79642,0.26111,3.44471-0.90205,4.22452-2.44589
		c0.44524-0.88146,0.58163-1.76918,0.70264-2.73218c0.10149-0.80769,0.43493-1.64587,0.91557-2.3069
		C53.73435,2.61706,53.27551,2.59885,53.185,2.72334L53.185,2.72334z"/>
</g>
<g>
	<path d="M54.75571,4.83066c0.45479-0.06993,0.92316-0.18891,1.33996-0.38549c0.21405-0.10096,0.48576-0.25131,0.56282-0.49305
		c0.08418-0.26411-0.12783-0.53657-0.37132-0.62003c-0.36535-0.12523-0.77749,0.02056-1.07039,0.24565
		c-0.33968,0.26104-0.60014,0.63826-0.76295,1.03148c-0.2525,0.60983-0.33949,1.55964,0.4878,1.72545
		c1.02134,0.2047,1.94431-0.66577,2.47807-1.42511c0.05792-0.0824-0.14454-0.10909-0.18263-0.11076
		c-0.0918-0.00403-0.24257,0.00616-0.30202,0.09075c-0.26084,0.37108-0.56757,0.7127-0.94197,0.97238
		c-0.12882,0.08934-0.26752,0.16916-0.41392,0.22622c-0.05925,0.02309-0.13575,0.04564-0.17522,0.05389
		c-0.00877,0.00183-0.10401,0.01603-0.05721,0.01088c-0.01585,0.00174-0.03183,0.00286-0.04774,0.00386
		c-0.07394,0.00465,0.02679,0.00182-0.01464,0.00059c-0.01501-0.00045-0.03001-0.00085-0.04499-0.00198
		c-0.03789-0.00285,0.0316,0.00456-0.00518-0.00096c-0.03028-0.00454-0.05111-0.00977-0.05171-0.00994
		c-0.05411-0.01528-0.08538-0.02943-0.13358-0.06038c-0.0899-0.05771-0.15832-0.14737-0.20316-0.24355
		c-0.13419-0.28783-0.0829-0.6625,0.00243-0.95557c0.10733-0.36868,0.30165-0.72218,0.55928-1.00741
		c0.10535-0.11663,0.22723-0.2282,0.36253-0.3094c0.04659-0.02796,0.10241-0.0537,0.14168-0.06759
		c0.02455-0.00869,0.01214,0.00508,0.05154-0.01201c-0.0168,0.00728-0.0311-0.00026-0.0474,0.00314
		c0.04226-0.00881-0.00631-0.00564,0.01138,0.00043c0.00489,0.00168,0.00504-0.00168,0.02329,0.00747
		c0.02263,0.01133,0.0455,0.02434,0.06534,0.04019c0.04856,0.03878,0.08868,0.09464,0.11813,0.14886
		c0.04077,0.07505,0.06067,0.16689,0.03753,0.25092c-0.05177,0.18799-0.25876,0.30193-0.41769,0.37891
		c-0.13211,0.06399-0.2365,0.10204-0.37536,0.14642c-0.06572,0.02101-0.13191,0.0405-0.19843,0.05879
		c-0.03174,0.00873-0.06356,0.01717-0.09545,0.02536c-0.01569,0.00403-0.10915,0.02663-0.06175,0.01551
		c-0.13651,0.03204-0.27422,0.06145-0.41288,0.08277c-0.0573,0.00881-0.21118,0.04951-0.16578,0.13468
		C54.48778,4.86394,54.68906,4.84092,54.75571,4.83066L54.75571,4.83066z"/>
</g>
</svg>
